Geologica-BlackSharp.ufo
<glyph name="quotesingle" format="2">
  <advance width="516"/>
  <unicode hex="0027"/>
  <outline>
    <contour>
      <point x="118" y="702" type="line"/>
      <point x="398" y="702" type="line"/>
      <point x="438" y="1400" type="line"/>
      <point x="78" y="1400" type="line"/>
    </contour>
  </outline>
</glyph>
<glyph name="parenleft" format="2">
  <advance width="732"/>
  <unicode hex="0028"/>
  <outline>
    <contour>
      <point x="309" y="-158" type="curve"/>
      <point x="672" y="-158" type="line"/>
      <point x="525" y="90"/>
      <point x="450" y="392"/>
      <point x="450" y="696" type="curve" smooth="yes"/>
      <point x="450" y="996"/>
      <point x="523" y="1297"/>
      <point x="672" y="1538" type="curve"/>
      <point x="309" y="1538" type="line"/>
      <point x="169" y="1267"/>
      <point x="100" y="980"/>
      <point x="100" y="692" type="curve" smooth="yes"/>
      <point x="100" y="402"/>
      <point x="169" y="115"/>
    </contour>
  </outline>
</glyph>
<glyph name="one" format="2">
  <advance width="915"/>
  <unicode hex="0031"/>
  <outline>
    <contour>
      <point x="354" y="0" type="line"/>
      <point x="722" y="0" type="line"/>
      <point x="722" y="1430" type="line"/>
      <point x="696" y="1430" type="line"/>
      <point x="68" y="1214" type="line"/>
      <point x="68" y="860" type="line"/>
      <point x="354" y="958" type="line"/>
    </contour>
  </outline>
</glyph>
<glyph name="two" format="2">
  <advance width="1202"/>
  <unicode hex="0032"/>
  <outline>
    <contour>
      <point x="84" y="0" type="line"/>
      <point x="1076" y="0" type="line"/>
      <point x="1156" y="326" type="line"/>
      <point x="608" y="326" type="line"/>
      <point x="694" y="408" type="line" smooth="yes"/>
      <point x="994" y="694"/>
      <point x="1078" y="822"/>
      <point x="1078" y="992" type="curve" smooth="yes"/>
      <point x="1078" y="1250"/>
      <point x="884" y="1430"/>
      <point x="570" y="1430" type="curve" smooth="yes"/>
      <point x="426" y="1430"/>
      <point x="272" y="1386"/>
      <point x="144" y="1308" type="curve"/>
      <point x="144" y="964" type="line"/>
      <point x="244" y="1050"/>
      <point x="362" y="1096"/>
      <point x="492" y="1096" type="curve" smooth="yes"/>
      <point x="634" y="1096"/>
      <point x="708" y="1042"/>
      <point x="708" y="938" type="curve" smooth="yes"/>
      <point x="708" y="832"/>
      <point x="646" y="754"/>
      <point x="378" y="516" type="curve" smooth="yes"/>
      <point x="84" y="256" type="line"/>
    </contour>
  </outline>
</glyph>
<glyph name="six" format="2">
  <advance width="1304"/>
  <unicode hex="0036"/>
  <outline>
    <contour>
      <point x="662" y="-30" type="curve" smooth="yes"/>
      <point x="1008" y="-30"/>
      <point x="1216" y="196"/>
      <point x="1216" y="462" type="curve" smooth="yes"/>
      <point x="1216" y="730"/>
      <point x="1044" y="924"/>
      <point x="762" y="924" type="curve" smooth="yes"/>
      <point x="635" y="924"/>
      <point x="543" y="890"/>
      <point x="470" y="833" type="curve"/>
      <point x="515" y="1031"/>
      <point x="750" y="1131"/>
      <point x="1084" y="1093" type="curve"/>
      <point x="1084" y="1419" type="line"/>
      <point x="397" y="1502"/>
      <point x="90" y="1059"/>
      <point x="90" y="612" type="curve" smooth="yes"/>
      <point x="90" y="205"/>
      <point x="325" y="-30"/>
    </contour>
    <contour>
      <point x="662" y="286" type="curve" smooth="yes"/>
      <point x="556" y="286"/>
      <point x="478" y="356"/>
      <point x="478" y="452" type="curve" smooth="yes"/>
      <point x="478" y="548"/>
      <point x="556" y="618"/>
      <point x="662" y="618" type="curve" smooth="yes"/>
      <point x="768" y="618"/>
      <point x="846" y="548"/>
      <point x="846" y="452" type="curve" smooth="yes"/>
      <point x="846" y="356"/>
      <point x="768" y="286"/>
    </contour>
  </outline>
</glyph>
<glyph name="eight" format="2">
  <advance width="1236"/>
  <unicode hex="0038"/>
  <outline>
    <contour>
      <point x="608" y="-30" type="curve" smooth="yes"/>
      <point x="932" y="-30"/>
      <point x="1166" y="150"/>
      <point x="1166" y="390" type="curve" smooth="yes"/>
      <point x="1166" y="553"/>
      <point x="1066" y="678"/>
      <point x="928" y="740" type="curve"/>
      <point x="1018" y="784"/>
      <point x="1118" y="880"/>
      <point x="1118" y="1040" type="curve" smooth="yes"/>
      <point x="1118" y="1264"/>
      <point x="910" y="1430"/>
      <point x="618" y="1430" type="curve" smooth="yes"/>
      <point x="330" y="1430"/>
      <point x="122" y="1266"/>
      <point x="122" y="1040" type="curve" smooth="yes"/>
      <point x="122" y="882"/>
      <point x="220" y="784"/>
      <point x="312" y="740" type="curve"/>
      <point x="162" y="678"/>
      <point x="70" y="555"/>
      <point x="70" y="390" type="curve" smooth="yes"/>
      <point x="70" y="150"/>
      <point x="266" y="-30"/>
    </contour>
    <contour>
      <point x="618" y="276" type="curve" smooth="yes"/>
      <point x="524" y="276"/>
      <point x="438" y="334"/>
      <point x="438" y="438" type="curve" smooth="yes"/>
      <point x="438" y="540"/>
      <point x="520" y="598"/>
      <point x="618" y="598" type="curve" smooth="yes"/>
      <point x="714" y="598"/>
      <point x="798" y="544"/>
      <point x="798" y="438" type="curve" smooth="yes"/>
      <point x="798" y="334"/>
      <point x="708" y="276"/>
    </contour>
    <contour>
      <point x="620" y="892" type="curve" smooth="yes"/>
      <point x="530" y="892"/>
      <point x="464" y="951"/>
      <point x="464" y="1031" type="curve" smooth="yes"/>
      <point x="464" y="1109"/>
      <point x="529" y="1168"/>
      <point x="620" y="1168" type="curve" smooth="yes"/>
      <point x="710" y="1168"/>
      <point x="776" y="1109"/>
      <point x="776" y="1031" type="curve" smooth="yes"/>
      <point x="776" y="951"/>
      <point x="710" y="892"/>
    </contour>
  </outline>
</glyph>
<glyph name="less" format="2">
  <advance width="1296"/>
  <unicode hex="003C"/>
  <outline>
    <contour>
      <point x="1228" y="36" type="line"/>
      <point x="1228" y="332" type="line"/>
      <point x="488" y="630" type="line"/>
      <point x="1227" y="927" type="line"/>
      <point x="1226" y="1222" type="line"/>
      <point x="68" y="764" type="line"/>
      <point x="68" y="494" type="line"/>
    </contour>
  </outline>
</glyph>
<glyph name="greater" format="2">
  <advance width="1296"/>
  <unicode hex="003E"/>
  <guideline x="30" y="465" angle="68.4372"/>
  <outline>
    <contour>
      <point x="70" y="36" type="line"/>
      <point x="1228" y="494" type="line"/>
      <point x="1228" y="764" type="line"/>
      <point x="68" y="1222" type="line"/>
      <point x="68" y="926" type="line"/>
      <point x="808" y="628" type="line"/>
      <point x="69" y="331" type="line"/>
    </contour>
  </outline>
</glyph>
<glyph name="A" format="2">
  <advance width="1492"/>
  <unicode hex="0041"/>
  <anchor x="747" y="0" name="bottom"/>
  <anchor x="1432" y="0" name="ogonek"/>
  <anchor x="747" y="1400" name="top"/>
  <anchor x="257" y="1400" name="topleft"/>
  <outline>
    <contour>
      <point x="-3" y="0" type="line"/>
      <point x="441" y="0" type="line"/>
      <point x="519" y="250" type="line"/>
      <point x="961" y="250" type="line"/>
      <point x="1039" y="0" type="line"/>
      <point x="1495" y="0" type="line"/>
      <point x="987" y="1400" type="line"/>
      <point x="507" y="1400" type="line"/>
    </contour>
    <contour>
      <point x="605" y="584" type="line"/>
      <point x="741" y="984" type="line"/>
      <point x="873" y="584" type="line"/>
    </contour>
  </outline>
</glyph>
<glyph name="B" format="2">
  <advance width="1348"/>
  <unicode hex="0042"/>
  <outline>
    <contour>
      <point x="153" y="0" type="line"/>
      <point x="743" y="0" type="line" smooth="yes"/>
      <point x="1075" y="0"/>
      <point x="1281" y="160"/>
      <point x="1281" y="422" type="curve" smooth="yes"/>
      <point x="1281" y="586"/>
      <point x="1187" y="718"/>
      <point x="1039" y="774" type="curve"/>
      <point x="1147" y="830"/>
      <point x="1221" y="920"/>
      <point x="1221" y="1044" type="curve" smooth="yes"/>
      <point x="1221" y="1280"/>
      <point x="1033" y="1400"/>
      <point x="737" y="1400" type="curve" smooth="yes"/>
      <point x="153" y="1400" type="line"/>
    </contour>
    <contour>
      <point x="557" y="290" type="line"/>
      <point x="557" y="574" type="line"/>
      <point x="709" y="574" type="line" smooth="yes"/>
      <point x="805" y="574"/>
      <point x="859" y="520"/>
      <point x="859" y="432" type="curve" smooth="yes"/>
      <point x="859" y="340"/>
      <point x="801" y="290"/>
      <point x="689" y="290" type="curve" smooth="yes"/>
    </contour>
    <contour>
      <point x="557" y="842" type="line"/>
      <point x="557" y="1110" type="line"/>
      <point x="679" y="1110" type="line" smooth="yes"/>
      <point x="777" y="1110"/>
      <point x="831" y="1062"/>
      <point x="831" y="978" type="curve" smooth="yes"/>
      <point x="831" y="892"/>
      <point x="777" y="842"/>
      <point x="685" y="842" type="curve" smooth="yes"/>
    </contour>
  </outline>
</glyph>
<glyph name="E" format="2">
  <advance width="1300"/>
  <unicode hex="0045"/>
  <guideline x="595" y="88" angle="257.1957"/>
  <anchor x="667" y="0" name="bottom"/>
  <anchor x="1159" y="0" name="ogonek"/>
  <anchor x="667" y="1400" name="top"/>
  <anchor x="37" y="1400" name="topleft"/>
  <outline>
    <contour>
      <point x="153" y="0" type="line"/>
      <point x="1159" y="0" type="line"/>
      <point x="1239" y="352" type="line"/>
      <point x="557" y="352" type="line"/>
      <point x="557" y="552" type="line"/>
      <point x="1077" y="552" type="line"/>
      <point x="1077" y="870" type="line"/>
      <point x="557" y="870" type="line"/>
      <point x="557" y="1052" type="line"/>
      <point x="1191" y="1052" type="line"/>
      <point x="1191" y="1400" type="line"/>
      <point x="153" y="1400" type="line"/>
    </contour>
  </outline>
</glyph>
<glyph name="H" format="2">
  <advance width="1588"/>
  <unicode hex="0048"/>
  <anchor x="794" y="1400" name="top"/>
  <anchor x="40" y="1400" name="topleft"/>
  <outline>
    <contour>
      <point x="156" y="0" type="line"/>
      <point x="560" y="0" type="line"/>
      <point x="560" y="538" type="line"/>
      <point x="1028" y="538" type="line"/>
      <point x="1028" y="0" type="line"/>
      <point x="1432" y="0" type="line"/>
      <point x="1432" y="1400" type="line"/>
      <point x="1028" y="1400" type="line"/>
      <point x="1028" y="906" type="line"/>
      <point x="560" y="906" type="line"/>
      <point x="560" y="1400" type="line"/>
      <point x="156" y="1400" type="line"/>
    </contour>
  </outline>
</glyph>
<glyph name="M" format="2">
  <advance width="1902"/>
  <unicode hex="004D"/>
  <outline>
    <contour>
      <point x="153" y="0" type="line"/>
      <point x="523" y="0" type="line"/>
      <point x="515" y="892" type="line"/>
      <point x="445" y="866" type="line"/>
      <point x="821" y="238" type="line"/>
      <point x="1081" y="238" type="line"/>
      <point x="1437" y="866" type="line"/>
      <point x="1367" y="892" type="line"/>
      <point x="1359" y="0" type="line"/>
      <point x="1749" y="0" type="line"/>
      <point x="1749" y="1400" type="line"/>
      <point x="1361" y="1400" type="line"/>
      <point x="885" y="546" type="line"/>
      <point x="1047" y="548" type="line"/>
      <point x="541" y="1400" type="line"/>
      <point x="153" y="1400" type="line"/>
    </contour>
  </outline>
</glyph>
<glyph name="N" format="2">
  <advance width="1590"/>
  <unicode hex="004E"/>
  <anchor x="795" y="0" name="bottom"/>
  <anchor x="795" y="1400" name="top"/>
  <outline>
    <contour>
      <point x="153" y="0" type="line"/>
      <point x="543" y="0" type="line"/>
      <point x="543" y="764" type="line"/>
      <point x="1033" y="0" type="line"/>
      <point x="1437" y="0" type="line"/>
      <point x="1437" y="1400" type="line"/>
      <point x="1047" y="1400" type="line"/>
      <point x="1047" y="648" type="line"/>
      <point x="557" y="1400" type="line"/>
      <point x="153" y="1400" type="line"/>
    </contour>
  </outline>
</glyph>
<glyph name="O" format="2">
  <advance width="1642"/>
  <unicode hex="004F"/>
  <anchor x="821" y="0" name="bottom"/>
  <anchor x="1225" y="1400" name="horn"/>
  <anchor x="1081" y="0" name="ogonek"/>
  <anchor x="821" y="1400" name="top"/>
  <anchor x="87" y="1400" name="topleft"/>
  <outline>
    <contour>
      <point x="821" y="-30" type="curve" smooth="yes"/>
      <point x="1257" y="-30"/>
      <point x="1575" y="286"/>
      <point x="1575" y="700" type="curve" smooth="yes"/>
      <point x="1575" y="1108"/>
      <point x="1257" y="1430"/>
      <point x="821" y="1430" type="curve" smooth="yes"/>
      <point x="383" y="1430"/>
      <point x="67" y="1116"/>
      <point x="67" y="700" type="curve" smooth="yes"/>
      <point x="67" y="286"/>
      <point x="383" y="-30"/>
    </contour>
    <contour>
      <point x="821" y="348" type="curve" smooth="yes"/>
      <point x="627" y="348"/>
      <point x="491" y="484"/>
      <point x="491" y="700" type="curve" smooth="yes"/>
      <point x="491" y="916"/>
      <point x="627" y="1052"/>
      <point x="821" y="1052" type="curve" smooth="yes"/>
      <point x="1015" y="1052"/>
      <point x="1151" y="916"/>
      <point x="1151" y="700" type="curve" smooth="yes"/>
      <point x="1151" y="484"/>
      <point x="1015" y="348"/>
    </contour>
  </outline>
</glyph>
<glyph name="P" format="2">
  <advance width="1352"/>
  <unicode hex="0050"/>
  <outline>
    <contour>
      <point x="156" y="0" type="line"/>
      <point x="560" y="0" type="line"/>
      <point x="560" y="432" type="line"/>
      <point x="744" y="432" type="line" smooth="yes"/>
      <point x="1104" y="432"/>
      <point x="1312" y="608"/>
      <point x="1312" y="916" type="curve" smooth="yes"/>
      <point x="1312" y="1222"/>
      <point x="1076" y="1400"/>
      <point x="754" y="1400" type="curve" smooth="yes"/>
      <point x="156" y="1400" type="line"/>
    </contour>
    <contour>
      <point x="560" y="766" type="line"/>
      <point x="560" y="1056" type="line"/>
      <point x="730" y="1056" type="line" smooth="yes"/>
      <point x="834" y="1056"/>
      <point x="908" y="1022"/>
      <point x="908" y="910" type="curve" smooth="yes"/>
      <point x="908" y="802"/>
      <point x="840" y="766"/>
      <point x="728" y="766" type="curve" smooth="yes"/>
    </contour>
  </outline>
</glyph>
<glyph name="Q" format="2">
  <advance width="1642"/>
  <unicode hex="0051"/>
  <guideline x="888" y="602" angle="40.8724"/>
  <outline>
    <contour>
      <point x="1221" y="0" type="line"/>
      <point x="1629" y="0" type="line"/>
      <point x="1409" y="240" type="line"/>
      <point x="1513" y="364"/>
      <point x="1575" y="526"/>
      <point x="1575" y="708" type="curve" smooth="yes"/>
      <point x="1575" y="1120"/>
      <point x="1241" y="1430"/>
      <point x="821" y="1430" type="curve" smooth="yes"/>
      <point x="389" y="1430"/>
      <point x="67" y="1116"/>
      <point x="67" y="700" type="curve" smooth="yes"/>
      <point x="67" y="276"/>
      <point x="393" y="-30"/>
      <point x="805" y="-30" type="curve" smooth="yes"/>
      <point x="937" y="-30"/>
      <point x="1061" y="0"/>
      <point x="1173" y="54" type="curve"/>
    </contour>
    <contour>
      <point x="821" y="306" type="curve" smooth="yes"/>
      <point x="613" y="306"/>
      <point x="467" y="468"/>
      <point x="467" y="700" type="curve" smooth="yes"/>
      <point x="467" y="932"/>
      <point x="613" y="1078"/>
      <point x="821" y="1078" type="curve" smooth="yes"/>
      <point x="1029" y="1078"/>
      <point x="1191" y="932"/>
      <point x="1191" y="700" type="curve" smooth="yes"/>
      <point x="1191" y="628"/>
      <point x="1177" y="566"/>
      <point x="1153" y="514" type="curve"/>
      <point x="1075" y="602" type="line"/>
      <point x="710" y="602" type="line"/>
      <point x="945" y="326" type="line"/>
      <point x="905" y="312"/>
      <point x="861" y="306"/>
    </contour>
  </outline>
</glyph>
<glyph name="S" format="2">
  <advance width="1292"/>
  <unicode hex="0053"/>
  <anchor x="665" y="0" name="bottom"/>
  <anchor x="693" y="1400" name="top"/>
  <outline>
    <contour>
      <point x="665" y="-30" type="curve" smooth="yes"/>
      <point x="1001" y="-30"/>
      <point x="1223" y="162"/>
      <point x="1223" y="440" type="curve" smooth="yes"/>
      <point x="1223" y="646"/>
      <point x="1101" y="774"/>
      <point x="815" y="858" type="curve" smooth="yes"/>
      <point x="713" y="888" type="line" smooth="yes"/>
      <point x="589" y="924"/>
      <point x="543" y="946"/>
      <point x="543" y="996" type="curve" smooth="yes"/>
      <point x="543" y="1052"/>
      <point x="611" y="1092"/>
      <point x="717" y="1092" type="curve" smooth="yes"/>
      <point x="875" y="1092"/>
      <point x="1039" y="1034"/>
      <point x="1121" y="972" type="curve"/>
      <point x="1121" y="1358" type="line"/>
      <point x="1016" y="1403"/>
      <point x="880" y="1428"/>
      <point x="725" y="1428" type="curve" smooth="yes"/>
      <point x="387" y="1428"/>
      <point x="153" y="1232"/>
      <point x="153" y="978" type="curve" smooth="yes"/>
      <point x="153" y="776"/>
      <point x="271" y="620"/>
      <point x="557" y="544" type="curve" smooth="yes"/>
      <point x="661" y="516" type="line" smooth="yes"/>
      <point x="787" y="482"/>
      <point x="829" y="448"/>
      <point x="829" y="394" type="curve" smooth="yes"/>
      <point x="829" y="338"/>
      <point x="751" y="306"/>
      <point x="645" y="306" type="curve" smooth="yes"/>
      <point x="483" y="306"/>
      <point x="271" y="370"/>
      <point x="177" y="446" type="curve"/>
      <point x="177" y="62" type="line"/>
      <point x="313" y="1"/>
      <point x="490" y="-30"/>
    </contour>
  </outline>
</glyph>
<glyph name="T" format="2">
  <advance width="1186"/>
  <unicode hex="0054"/>
  <guideline x="30" y="1216" angle="77.7352"/>
  <anchor x="594" y="644" name="bar"/>
  <anchor x="592" y="0" name="bottom"/>
  <anchor x="592" y="1400" name="top"/>
  <outline>
    <contour>
      <point x="390" y="0" type="line"/>
      <point x="796" y="0" type="line"/>
      <point x="796" y="1032" type="line"/>
      <point x="1156" y="1032" type="line"/>
      <point x="1156" y="1400" type="line"/>
      <point x="70" y="1400" type="line"/>
      <point x="-10" y="1032" type="line"/>
      <point x="390" y="1032" type="line"/>
    </contour>
  </outline>
</glyph>
<glyph name="U" format="2">
  <advance width="1536"/>
  <unicode hex="0055"/>
  <anchor x="768" y="0" name="bottom"/>
  <anchor x="1390" y="1400" name="horn"/>
  <anchor x="1184" y="0" name="ogonek"/>
  <anchor x="768" y="1400" name="top"/>
  <outline>
    <contour>
      <point x="768" y="-30" type="curve" smooth="yes"/>
      <point x="1174" y="-30"/>
      <point x="1390" y="226"/>
      <point x="1390" y="596" type="curve" smooth="yes"/>
      <point x="1390" y="1400" type="line"/>
      <point x="984" y="1400" type="line"/>
      <point x="984" y="574" type="line" smooth="yes"/>
      <point x="984" y="420"/>
      <point x="906" y="348"/>
      <point x="768" y="348" type="curve" smooth="yes"/>
      <point x="628" y="348"/>
      <point x="550" y="420"/>
      <point x="550" y="574" type="curve" smooth="yes"/>
      <point x="550" y="1400" type="line"/>
      <point x="146" y="1400" type="line"/>
      <point x="146" y="596" type="line" smooth="yes"/>
      <point x="146" y="224"/>
      <point x="362" y="-30"/>
    </contour>
  </outline>
</glyph>
<glyph name="V" format="2">
  <advance width="1434"/>
  <unicode hex="0056"/>
  <outline>
    <contour>
      <point x="481" y="0" type="line"/>
      <point x="951" y="0" type="line"/>
      <point x="1455" y="1400" type="line"/>
      <point x="1007" y="1400" type="line"/>
      <point x="721" y="504" type="line"/>
      <point x="435" y="1400" type="line"/>
      <point x="-21" y="1400" type="line"/>
    </contour>
  </outline>
</glyph>
<glyph name="W" format="2">
  <advance width="2098"/>
  <unicode hex="0057"/>
  <anchor x="1049" y="1400" name="top"/>
  <outline>
    <contour>
      <point x="445" y="0" type="line"/>
      <point x="827" y="0" type="line"/>
      <point x="1047" y="806" type="line"/>
      <point x="1267" y="0" type="line"/>
      <point x="1653" y="0" type="line"/>
      <point x="2081" y="1400" type="line"/>
      <point x="1675" y="1400" type="line"/>
      <point x="1475" y="618" type="line"/>
      <point x="1253" y="1400" type="line"/>
      <point x="855" y="1400" type="line"/>
      <point x="633" y="618" type="line"/>
      <point x="433" y="1400" type="line"/>
      <point x="17" y="1400" type="line"/>
    </contour>
  </outline>
</glyph>
<glyph name="Y" format="2">
  <advance width="1336"/>
  <unicode hex="0059"/>
  <anchor x="669" y="0" name="bottom"/>
  <anchor x="667" y="1400" name="top"/>
  <anchor x="-63" y="1400" name="topleft"/>
  <outline>
    <contour>
      <point x="465" y="0" type="line"/>
      <point x="871" y="0" type="line"/>
      <point x="871" y="568" type="line"/>
      <point x="1359" y="1400" type="line"/>
      <point x="921" y="1400" type="line"/>
      <point x="675" y="958" type="line"/>
      <point x="427" y="1400" type="line"/>
      <point x="-23" y="1400" type="line"/>
      <point x="465" y="572" type="line"/>
    </contour>
  </outline>
</glyph>
<glyph name="underscore" format="2">
  <advance width="1140"/>
  <unicode hex="005F"/>
  <outline>
    <contour>
      <point x="20" y="-408" type="line"/>
      <point x="1120" y="-408" type="line"/>
      <point x="1120" y="-92" type="line"/>
      <point x="20" y="-92" type="line"/>
    </contour>
  </outline>
</glyph>
<glyph name="a" format="2">
  <advance width="1197"/>
  <unicode hex="0061"/>
  <anchor x="567" y="0" name="bottom"/>
  <anchor x="1085" y="0" name="ogonek"/>
  <anchor x="567" y="1040" name="top"/>
  <outline>
    <contour>
      <point x="419" y="-30" type="curve" smooth="yes"/>
      <point x="565" y="-30"/>
      <point x="681" y="18"/>
      <point x="745" y="102" type="curve"/>
      <point x="745" y="0" type="line"/>
      <point x="1085" y="0" type="line"/>
      <point x="1085" y="620" type="line" smooth="yes"/>
      <point x="1085" y="944"/>
      <point x="865" y="1080"/>
      <point x="567" y="1080" type="curve" smooth="yes"/>
      <point x="431" y="1080"/>
      <point x="285" y="1048"/>
      <point x="159" y="985" type="curve"/>
      <point x="159" y="688" type="line"/>
      <point x="249" y="746"/>
      <point x="375" y="780"/>
      <point x="488" y="780" type="curve" smooth="yes"/>
      <point x="657" y="780"/>
      <point x="705" y="710"/>
      <point x="705" y="614" type="curve" smooth="yes"/>
      <point x="705" y="402" type="line" smooth="yes"/>
      <point x="705" y="296"/>
      <point x="629" y="250"/>
      <point x="534" y="250" type="curve" smooth="yes"/>
      <point x="463" y="250"/>
      <point x="415" y="276"/>
      <point x="415" y="331" type="curve" smooth="yes"/>
      <point x="415" y="432"/>
      <point x="577" y="450"/>
      <point x="759" y="410" type="curve"/>
      <point x="757" y="648" type="line"/>
      <point x="299" y="684"/>
      <point x="53" y="556"/>
      <point x="53" y="308" type="curve" smooth="yes"/>
      <point x="53" y="94"/>
      <point x="219" y="-30"/>
    </contour>
  </outline>
</glyph>
<glyph name="b" format="2">
  <advance width="1358"/>
  <unicode hex="0062"/>
  <guideline x="257" y="740" angle="24.9384"/>
  <outline>
    <contour>
      <point x="797" y="-30" type="curve" smooth="yes"/>
      <point x="1089" y="-30"/>
      <point x="1311" y="180"/>
      <point x="1311" y="520" type="curve" smooth="yes"/>
      <point x="1311" y="834"/>
      <point x="1093" y="1070"/>
      <point x="789" y="1070" type="curve" smooth="yes"/>
      <point x="649" y="1070"/>
      <point x="527" y="1018"/>
      <point x="431" y="900" type="curve"/>
      <point x="523" y="808" type="line"/>
      <point x="523" y="1480" type="line"/>
      <point x="125" y="1294" type="line"/>
      <point x="125" y="-60" type="line"/>
      <point x="525" y="126" type="line"/>
      <point x="525" y="250" type="line"/>
      <point x="411" y="192" type="line"/>
      <point x="461" y="58"/>
      <point x="611" y="-30"/>
    </contour>
    <contour>
      <point x="723" y="310" type="curve" smooth="yes"/>
      <point x="611" y="310"/>
      <point x="523" y="390"/>
      <point x="523" y="520" type="curve" smooth="yes"/>
      <point x="523" y="650"/>
      <point x="609" y="730"/>
      <point x="723" y="730" type="curve" smooth="yes"/>
      <point x="837" y="730"/>
      <point x="923" y="650"/>
      <point x="923" y="520" type="curve" smooth="yes"/>
      <point x="923" y="390"/>
      <point x="835" y="310"/>
    </contour>
  </outline>
</glyph>
<glyph name="c" format="2">
  <advance width="1026"/>
  <unicode hex="0063"/>
  <anchor x="589" y="0" name="bottom"/>
  <anchor x="601" y="1040" name="top"/>
  <outline>
    <contour>
      <point x="629" y="-30" type="curve" smooth="yes"/>
      <point x="739" y="-30"/>
      <point x="857" y="-4"/>
      <point x="959" y="44" type="curve"/>
      <point x="959" y="412" type="line"/>
      <point x="869" y="342"/>
      <point x="775" y="310"/>
      <point x="671" y="310" type="curve" smooth="yes"/>
      <point x="527" y="310"/>
      <point x="441" y="388"/>
      <point x="441" y="520" type="curve" smooth="yes"/>
      <point x="441" y="654"/>
      <point x="525" y="730"/>
      <point x="669" y="730" type="curve" smooth="yes"/>
      <point x="763" y="730"/>
      <point x="853" y="704"/>
      <point x="933" y="640" type="curve"/>
      <point x="933" y="1012" type="line"/>
      <point x="845" y="1050"/>
      <point x="747" y="1070"/>
      <point x="641" y="1070" type="curve" smooth="yes"/>
      <point x="305" y="1070"/>
      <point x="47" y="832"/>
      <point x="47" y="520" type="curve" smooth="yes"/>
      <point x="47" y="206"/>
      <point x="297" y="-30"/>
    </contour>
  </outline>
</glyph>
<glyph name="d" format="2">
  <advance width="1364"/>
  <unicode hex="0064"/>
  <anchor x="998" y="1224" name="bar"/>
  <anchor x="1236" y="1440" name="caron"/>
  <outline>
    <contour>
      <point x="564" y="-30" type="curve" smooth="yes"/>
      <point x="750" y="-30"/>
      <point x="900" y="58"/>
      <point x="950" y="192" type="curve"/>
      <point x="896" y="282" type="line"/>
      <point x="896" y="0" type="line"/>
      <point x="1236" y="0" type="line"/>
      <point x="1236" y="1480" type="line"/>
      <point x="836" y="1294" type="line"/>
      <point x="836" y="808" type="line"/>
      <point x="930" y="900" type="line"/>
      <point x="834" y="1018"/>
      <point x="712" y="1070"/>
      <point x="572" y="1070" type="curve" smooth="yes"/>
      <point x="268" y="1070"/>
      <point x="50" y="834"/>
      <point x="50" y="520" type="curve" smooth="yes"/>
      <point x="50" y="180"/>
      <point x="272" y="-30"/>
    </contour>
    <contour>
      <point x="638" y="310" type="curve" smooth="yes"/>
      <point x="526" y="310"/>
      <point x="438" y="390"/>
      <point x="438" y="520" type="curve" smooth="yes"/>
      <point x="438" y="650"/>
      <point x="524" y="730"/>
      <point x="638" y="730" type="curve" smooth="yes"/>
      <point x="752" y="730"/>
      <point x="838" y="650"/>
      <point x="838" y="520" type="curve" smooth="yes"/>
      <point x="838" y="390"/>
      <point x="750" y="310"/>
    </contour>
  </outline>
</glyph>
<glyph name="e" format="2">
  <advance width="1223"/>
  <unicode hex="0065"/>
  <anchor x="596" y="0" name="bottom"/>
  <anchor x="1080" y="0" name="ogonek"/>
  <anchor x="616" y="1040" name="top"/>
  <outline>
    <contour>
      <point x="672" y="-30" type="curve" smooth="yes"/>
      <point x="797" y="-30"/>
      <point x="954" y="5"/>
      <point x="1060" y="55" type="curve"/>
      <point x="1060" y="362" type="line"/>
      <point x="940" y="298"/>
      <point x="820" y="270"/>
      <point x="680" y="270" type="curve" smooth="yes"/>
      <point x="528" y="270"/>
      <point x="418" y="326"/>
      <point x="408" y="408" type="curve"/>
      <point x="1158" y="408" type="line"/>
      <point x="1234" y="786"/>
      <point x="1006" y="1070"/>
      <point x="628" y="1070" type="curve" smooth="yes"/>
      <point x="290" y="1070"/>
      <point x="50" y="844"/>
      <point x="50" y="522" type="curve" smooth="yes"/>
      <point x="50" y="190"/>
      <point x="298" y="-30"/>
    </contour>
    <contour>
      <point x="434" y="668" type="line"/>
      <point x="440" y="740"/>
      <point x="514" y="790"/>
      <point x="616" y="790" type="curve" smooth="yes"/>
      <point x="714" y="790"/>
      <point x="782" y="740"/>
      <point x="782" y="668" type="curve"/>
    </contour>
  </outline>
</glyph>
<glyph name="k" format="2">
  <advance width="1266"/>
  <unicode hex="006B"/>
  <anchor x="669" y="0" name="bottom"/>
  <outline>
    <contour>
      <point x="125" y="0" type="line"/>
      <point x="525" y="0" type="line"/>
      <point x="525" y="276" type="line"/>
      <point x="585" y="344" type="line"/>
      <point x="785" y="0" type="line"/>
      <point x="1255" y="0" type="line"/>
      <point x="875" y="606" type="line"/>
      <point x="1237" y="1040" type="line"/>
      <point x="777" y="1040" type="line"/>
      <point x="525" y="744" type="line"/>
      <point x="525" y="1480" type="line"/>
      <point x="125" y="1294" type="line"/>
    </contour>
  </outline>
</glyph>
<glyph name="m" format="2">
  <advance width="2020"/>
  <unicode hex="006D"/>
  <outline>
    <contour>
      <point x="125" y="0" type="line"/>
      <point x="525" y="0" type="line"/>
      <point x="525" y="586" type="line" smooth="yes"/>
      <point x="525" y="652"/>
      <point x="581" y="710"/>
      <point x="669" y="710" type="curve" smooth="yes"/>
      <point x="763" y="710"/>
      <point x="815" y="646"/>
      <point x="815" y="548" type="curve" smooth="yes"/>
      <point x="815" y="0" type="line"/>
      <point x="1215" y="0" type="line"/>
      <point x="1215" y="586" type="line" smooth="yes"/>
      <point x="1215" y="652"/>
      <point x="1271" y="710"/>
      <point x="1359" y="710" type="curve" smooth="yes"/>
      <point x="1453" y="710"/>
      <point x="1505" y="646"/>
      <point x="1505" y="548" type="curve" smooth="yes"/>
      <point x="1505" y="0" type="line"/>
      <point x="1905" y="0" type="line"/>
      <point x="1905" y="662" type="line" smooth="yes"/>
      <point x="1905" y="874"/>
      <point x="1815" y="1070"/>
      <point x="1505" y="1070" type="curve" smooth="yes"/>
      <point x="1341" y="1070"/>
      <point x="1193" y="1004"/>
      <point x="1125" y="886" type="curve"/>
      <point x="1087" y="1002"/>
      <point x="967" y="1070"/>
      <point x="827" y="1070" type="curve" smooth="yes"/>
      <point x="713" y="1070"/>
      <point x="593" y="1016"/>
      <point x="525" y="920" type="curve"/>
      <point x="525" y="1100" type="line"/>
      <point x="125" y="914" type="line"/>
    </contour>
  </outline>
</glyph>
<glyph name="r" format="2">
  <advance width="930"/>
  <unicode hex="0072"/>
  <anchor x="325" y="0" name="bottom"/>
  <anchor x="525" y="1040" name="top"/>
  <outline>
    <contour>
      <point x="125" y="0" type="line"/>
      <point x="525" y="0" type="line"/>
      <point x="525" y="506" type="line" smooth="yes"/>
      <point x="525" y="626"/>
      <point x="601" y="680"/>
      <point x="705" y="680" type="curve" smooth="yes"/>
      <point x="761" y="680"/>
      <point x="819" y="668"/>
      <point x="869" y="648" type="curve"/>
      <point x="869" y="1064" type="line"/>
      <point x="845" y="1069"/>
      <point x="817" y="1072"/>
      <point x="789" y="1072" type="curve" smooth="yes"/>
      <point x="681" y="1072"/>
      <point x="577" y="1026"/>
      <point x="525" y="932" type="curve"/>
      <point x="525" y="1100" type="line"/>
      <point x="125" y="914" type="line"/>
    </contour>
  </outline>
</glyph>
<glyph name="s" format="2">
  <advance width="1062"/>
  <unicode hex="0073"/>
  <anchor x="541" y="0" name="bottom"/>
  <anchor x="547" y="1040" name="top"/>
  <outline>
    <contour>
      <point x="521" y="-28" type="curve" smooth="yes"/>
      <point x="803" y="-28"/>
      <point x="997" y="116"/>
      <point x="997" y="334" type="curve" smooth="yes"/>
      <point x="997" y="522"/>
      <point x="881" y="614"/>
      <point x="589" y="676" type="curve" smooth="yes"/>
      <point x="477" y="702"/>
      <point x="457" y="710"/>
      <point x="457" y="740" type="curve" smooth="yes"/>
      <point x="457" y="770"/>
      <point x="505" y="788"/>
      <point x="581" y="788" type="curve" smooth="yes"/>
      <point x="699" y="788"/>
      <point x="849" y="746"/>
      <point x="929" y="684" type="curve"/>
      <point x="943" y="997" type="line"/>
      <point x="838" y="1049"/>
      <point x="706" y="1080"/>
      <point x="567" y="1080" type="curve" smooth="yes"/>
      <point x="295" y="1080"/>
      <point x="105" y="942"/>
      <point x="105" y="728" type="curve" smooth="yes"/>
      <point x="105" y="528"/>
      <point x="236" y="424"/>
      <point x="509" y="374" type="curve" smooth="yes"/>
      <point x="617" y="354"/>
      <point x="647" y="348"/>
      <point x="647" y="318" type="curve" smooth="yes"/>
      <point x="647" y="282"/>
      <point x="603" y="264"/>
      <point x="517" y="264" type="curve" smooth="yes"/>
      <point x="391" y="264"/>
      <point x="233" y="308"/>
      <point x="99" y="378" type="curve"/>
      <point x="99" y="63" type="line"/>
      <point x="213" y="3"/>
      <point x="354" y="-28"/>
    </contour>
  </outline>
</glyph>
<glyph name="t" format="2">
  <advance width="924"/>
  <unicode hex="0074"/>
  <guideline x="204" y="330" angle="90"/>
  <anchor x="417" y="534" name="bar"/>
  <anchor x="555" y="0" name="bottom"/>
  <anchor x="601" y="1440" name="caron"/>
  <outline>
    <contour>
      <point x="595" y="-30" type="curve" smooth="yes"/>
      <point x="685" y="-30"/>
      <point x="767" y="-10"/>
      <point x="831" y="18" type="curve"/>
      <point x="831" y="350" type="line"/>
      <point x="795" y="330"/>
      <point x="753" y="320"/>
      <point x="715" y="320" type="curve" smooth="yes"/>
      <point x="653" y="320"/>
      <point x="601" y="352"/>
      <point x="601" y="440" type="curve" smooth="yes"/>
      <point x="601" y="728" type="line"/>
      <point x="817" y="728" type="line"/>
      <point x="817" y="1040" type="line"/>
      <point x="601" y="1040" type="line"/>
      <point x="601" y="1334" type="line"/>
      <point x="201" y="1334" type="line"/>
      <point x="201" y="378" type="line" smooth="yes"/>
      <point x="201" y="110"/>
      <point x="347" y="-30"/>
    </contour>
    <contour>
      <point x="-23" y="728" type="line"/>
      <point x="221" y="728" type="line"/>
      <point x="221" y="1060" type="line"/>
      <point x="-23" y="808" type="line"/>
    </contour>
  </outline>
</glyph>
<glyph name="u" format="2">
  <advance width="1320"/>
  <unicode hex="0075"/>
  <anchor x="653" y="0" name="bottom"/>
  <anchor x="1195" y="0" name="descender"/>
  <anchor x="1195" y="1040" name="horn"/>
  <anchor x="1195" y="0" name="ogonek"/>
  <anchor x="665" y="1040" name="top"/>
  <outline>
    <contour>
      <point x="537" y="-30" type="curve" smooth="yes"/>
      <point x="711" y="-30"/>
      <point x="797" y="40"/>
      <point x="855" y="102" type="curve"/>
      <point x="855" y="0" type="line"/>
      <point x="1195" y="0" type="line"/>
      <point x="1195" y="1100" type="line"/>
      <point x="795" y="914" type="line"/>
      <point x="795" y="482" type="line" smooth="yes"/>
      <point x="795" y="392"/>
      <point x="743" y="330"/>
      <point x="653" y="330" type="curve" smooth="yes"/>
      <point x="559" y="330"/>
      <point x="515" y="386"/>
      <point x="515" y="482" type="curve" smooth="yes"/>
      <point x="515" y="1100" type="line"/>
      <point x="115" y="914" type="line"/>
      <point x="115" y="428" type="line" smooth="yes"/>
      <point x="115" y="142"/>
      <point x="249" y="-30"/>
    </contour>
  </outline>
</glyph>
<glyph name="w" format="2">
  <advance width="1710"/>
  <unicode hex="0077"/>
  <anchor x="853" y="1034" name="top"/>
  <outline>
    <contour>
      <point x="309" y="0" type="line"/>
      <point x="701" y="0" type="line"/>
      <point x="859" y="558" type="line"/>
      <point x="1009" y="0" type="line"/>
      <point x="1401" y="0" type="line"/>
      <point x="1703" y="1040" type="line"/>
      <point x="1334" y="1040" type="line"/>
      <point x="1206" y="458" type="line"/>
      <point x="1046" y="1040" type="line"/>
      <point x="686" y="1040" type="line"/>
      <point x="524" y="458" type="line"/>
      <point x="390" y="1040" type="line"/>
      <point x="7" y="1040" type="line"/>
    </contour>
  </outline>
</glyph>
<glyph name="z" format="2">
  <advance width="1064"/>
  <unicode hex="007A"/>
  <anchor x="533" y="1040" name="top"/>
  <outline>
    <contour>
      <point x="77" y="0" type="line"/>
      <point x="947" y="0" type="line"/>
      <point x="1027" y="350" type="line"/>
      <point x="603" y="350" type="line"/>
      <point x="979" y="780" type="line"/>
      <point x="979" y="1040" type="line"/>
      <point x="95" y="1040" type="line"/>
      <point x="95" y="690" type="line"/>
      <point x="483" y="690" type="line"/>
      <point x="77" y="260" type="line"/>
    </contour>
  </outline>
</glyph>
<glyph name="exclamdown" format="2">
  <advance width="720"/>
  <unicode hex="00A1"/>
  <outline>
    <contour>
      <point x="130" y="-360" type="line"/>
      <point x="590" y="-360" type="line"/>
      <point x="530" y="504" type="line"/>
      <point x="190" y="504" type="line"/>
    </contour>
    <contour>
      <point x="360" y="624" type="curve" smooth="yes"/>
      <point x="486" y="624"/>
      <point x="594" y="708"/>
      <point x="594" y="848" type="curve" smooth="yes"/>
      <point x="594" y="986"/>
      <point x="486" y="1070"/>
      <point x="360" y="1070" type="curve" smooth="yes"/>
      <point x="234" y="1070"/>
      <point x="126" y="986"/>
      <point x="126" y="848" type="curve" smooth="yes"/>
      <point x="126" y="708"/>
      <point x="234" y="624"/>
    </contour>
  </outline>
</glyph>
<glyph name="section" format="2">
  <advance width="1422"/>
  <unicode hex="00A7"/>
  <outline>
    <contour>
      <point x="724" y="-450" type="curve" smooth="yes"/>
      <point x="1032" y="-450"/>
      <point x="1252" y="-294"/>
      <point x="1252" y="-50" type="curve" smooth="yes"/>
      <point x="1252" y="174"/>
      <point x="1118" y="288"/>
      <point x="800" y="350" type="curve" smooth="yes"/>
      <point x="614" y="386"/>
      <point x="520" y="428"/>
      <point x="520" y="514" type="curve" smooth="yes"/>
      <point x="520" y="618"/>
      <point x="628" y="666"/>
      <point x="748" y="666" type="curve"/>
      <point x="746" y="874" type="line"/>
      <point x="424" y="876"/>
      <point x="176" y="714"/>
      <point x="176" y="488" type="curve" smooth="yes"/>
      <point x="176" y="260"/>
      <point x="350" y="164"/>
      <point x="722" y="90" type="curve" smooth="yes"/>
      <point x="884" y="58"/>
      <point x="926" y="24"/>
      <point x="926" y="-40" type="curve" smooth="yes"/>
      <point x="926" y="-100"/>
      <point x="850" y="-142"/>
      <point x="736" y="-142" type="curve" smooth="yes"/>
      <point x="584" y="-142"/>
      <point x="410" y="-90"/>
      <point x="290" y="-8" type="curve"/>
      <point x="290" y="-344" type="line"/>
      <point x="408" y="-408"/>
      <point x="564" y="-450"/>
    </contour>
    <contour>
      <point x="758" y="112" type="line"/>
      <point x="1080" y="112"/>
      <point x="1330" y="266"/>
      <point x="1330" y="504" type="curve" smooth="yes"/>
      <point x="1330" y="720"/>
      <point x="1158" y="822"/>
      <point x="790" y="896" type="curve" smooth="yes"/>
      <point x="620" y="930"/>
      <point x="580" y="958"/>
      <point x="580" y="1024" type="curve" smooth="yes"/>
      <point x="580" y="1082"/>
      <point x="652" y="1122"/>
      <point x="760" y="1122" type="curve" smooth="yes"/>
      <point x="894" y="1122"/>
      <point x="1072" y="1070"/>
      <point x="1186" y="988" type="curve"/>
      <point x="1186" y="1326" type="line"/>
      <point x="1066" y="1394"/>
      <point x="916" y="1430"/>
      <point x="768" y="1430" type="curve" smooth="yes"/>
      <point x="468" y="1430"/>
      <point x="256" y="1272"/>
      <point x="256" y="1036" type="curve" smooth="yes"/>
      <point x="256" y="812"/>
      <point x="388" y="694"/>
      <point x="700" y="636" type="curve" smooth="yes"/>
      <point x="898" y="600"/>
      <point x="986" y="560"/>
      <point x="986" y="478" type="curve" smooth="yes"/>
      <point x="986" y="364"/>
      <point x="874" y="316"/>
      <point x="754" y="316" type="curve"/>
    </contour>
  </outline>
</glyph>
<glyph name="micro" format="2">
  <advance width="1334"/>
  <unicode hex="00B5"/>
  <outline>
    <contour>
      <point x="125" y="-420" type="line"/>
      <point x="485" y="-420" type="line"/>
      <point x="455" y="42" type="line"/>
      <point x="495" y="2"/>
      <point x="553" y="-30"/>
      <point x="647" y="-30" type="curve" smooth="yes"/>
      <point x="767" y="-30"/>
      <point x="829" y="40"/>
      <point x="869" y="102" type="curve"/>
      <point x="869" y="0" type="line"/>
      <point x="1209" y="0" type="line"/>
      <point x="1209" y="1100" type="line"/>
      <point x="809" y="914" type="line"/>
      <point x="809" y="482" type="line" smooth="yes"/>
      <point x="809" y="392"/>
      <point x="757" y="330"/>
      <point x="667" y="330" type="curve" smooth="yes"/>
      <point x="577" y="330"/>
      <point x="525" y="392"/>
      <point x="525" y="482" type="curve" smooth="yes"/>
      <point x="525" y="1100" type="line"/>
      <point x="125" y="914" type="line"/>
    </contour>
  </outline>
</glyph>
<glyph name="ordmasculine" format="2">
  <advance width="886"/>
  <unicode hex="00BA"/>
  <anchor x="443" y="722" name="bottom"/>
  <anchor x="711" y="1398" name="horn"/>
  <anchor x="575" y="722" name="ogonek"/>
  <anchor x="443" y="1398" name="top"/>
  <outline>
    <contour>
      <point x="443" y="702" type="curve" smooth="yes"/>
      <point x="675" y="702"/>
      <point x="835" y="874"/>
      <point x="835" y="1060" type="curve" smooth="yes"/>
      <point x="835" y="1254"/>
      <point x="675" y="1418"/>
      <point x="443" y="1418" type="curve" smooth="yes"/>
      <point x="211" y="1418"/>
      <point x="51" y="1246"/>
      <point x="51" y="1060" type="curve" smooth="yes"/>
      <point x="51" y="866"/>
      <point x="211" y="702"/>
    </contour>
    <contour>
      <point x="443" y="924" type="curve" smooth="yes"/>
      <point x="365" y="924"/>
      <point x="303" y="976"/>
      <point x="303" y="1060" type="curve" smooth="yes"/>
      <point x="303" y="1144"/>
      <point x="363" y="1196"/>
      <point x="443" y="1196" type="curve" smooth="yes"/>
      <point x="521" y="1196"/>
      <point x="581" y="1144"/>
      <point x="581" y="1060" type="curve" smooth="yes"/>
      <point x="581" y="976"/>
      <point x="521" y="924"/>
    </contour>
  </outline>
</glyph>
<glyph name="questiondown" format="2">
  <advance width="1052"/>
  <unicode hex="00BF"/>
  <outline>
    <contour>
      <point x="562" y="-390" type="curve" smooth="yes"/>
      <point x="696" y="-390"/>
      <point x="874" y="-348"/>
      <point x="958" y="-298" type="curve"/>
      <point x="958" y="50" type="line"/>
      <point x="822" y="-8"/>
      <point x="758" y="-24"/>
      <point x="674" y="-24" type="curve" smooth="yes"/>
      <point x="582" y="-24"/>
      <point x="540" y="2"/>
      <point x="540" y="58" type="curve" smooth="yes"/>
      <point x="540" y="100"/>
      <point x="556" y="118"/>
      <point x="658" y="190" type="curve" smooth="yes"/>
      <point x="770" y="270"/>
      <point x="800" y="364"/>
      <point x="752" y="516" type="curve"/>
      <point x="396" y="516" type="line"/>
      <point x="408" y="376"/>
      <point x="396" y="346"/>
      <point x="302" y="278" type="curve" smooth="yes"/>
      <point x="128" y="152"/>
      <point x="74" y="82"/>
      <point x="74" y="-36" type="curve" smooth="yes"/>
      <point x="74" y="-238"/>
      <point x="282" y="-390"/>
    </contour>
    <contour>
      <point x="572" y="624" type="curve" smooth="yes"/>
      <point x="698" y="624"/>
      <point x="806" y="708"/>
      <point x="806" y="848" type="curve" smooth="yes"/>
      <point x="806" y="986"/>
      <point x="698" y="1070"/>
      <point x="572" y="1070" type="curve" smooth="yes"/>
      <point x="446" y="1070"/>
      <point x="338" y="986"/>
      <point x="338" y="848" type="curve" smooth="yes"/>
      <point x="338" y="708"/>
      <point x="446" y="624"/>
    </contour>
  </outline>
</glyph>
<glyph name="Eth" format="2">
  <advance width="1514"/>
  <unicode hex="00D0"/>
  <anchor x="477" y="712" name="bar"/>
  <anchor x="761" y="1400" name="top"/>
  <outline>
    <contour>
      <point x="-25" y="558" type="line"/>
      <point x="861" y="558" type="line"/>
      <point x="861" y="866" type="line"/>
      <point x="-25" y="866" type="line"/>
    </contour>
    <component base="D" xOffset="40"/>
  </outline>
</glyph>
<glyph name="Oslash" format="2">
  <advance width="1642"/>
  <unicode hex="00D8"/>
  <anchor x="821" y="1400" name="top"/>
  <outline>
    <contour>
      <point x="425" y="0" type="line"/>
      <point x="469" y="54" type="line"/>
      <point x="573" y="0"/>
      <point x="693" y="-30"/>
      <point x="821" y="-30" type="curve" smooth="yes"/>
      <point x="1249" y="-30"/>
      <point x="1575" y="286"/>
      <point x="1575" y="700" type="curve" smooth="yes"/>
      <point x="1575" y="884"/>
      <point x="1513" y="1056"/>
      <point x="1401" y="1184" type="curve"/>
      <point x="1583" y="1400" type="line"/>
      <point x="1177" y="1400" type="line"/>
      <point x="1143" y="1358" type="line"/>
      <point x="1055" y="1402"/>
      <point x="947" y="1430"/>
      <point x="821" y="1430" type="curve" smooth="yes"/>
      <point x="391" y="1430"/>
      <point x="67" y="1114"/>
      <point x="67" y="700" type="curve" smooth="yes"/>
      <point x="67" y="524"/>
      <point x="121" y="366"/>
      <point x="219" y="240" type="curve"/>
      <point x="19" y="0" type="line"/>
    </contour>
    <contour>
      <point x="503" y="572" type="line"/>
      <point x="489" y="610"/>
      <point x="481" y="652"/>
      <point x="481" y="700" type="curve" smooth="yes"/>
      <point x="481" y="924"/>
      <point x="621" y="1066"/>
      <point x="821" y="1066" type="curve" smooth="yes"/>
      <point x="847" y="1066"/>
      <point x="875" y="1062"/>
      <point x="901" y="1054" type="curve"/>
    </contour>
    <contour>
      <point x="821" y="334" type="curve" smooth="yes"/>
      <point x="777" y="334"/>
      <point x="739" y="342"/>
      <point x="703" y="354" type="curve"/>
      <point x="1129" y="868" type="line"/>
      <point x="1151" y="818"/>
      <point x="1161" y="758"/>
      <point x="1161" y="700" type="curve" smooth="yes"/>
      <point x="1161" y="480"/>
      <point x="1027" y="334"/>
    </contour>
  </outline>
</glyph>
<glyph name="ae" format="2">
  <advance width="1880"/>
  <unicode hex="00E6"/>
  <anchor x="941" y="1040" name="top"/>
  <outline>
    <contour>
      <point x="459" y="-30" type="curve" smooth="yes"/>
      <point x="671" y="-30"/>
      <point x="857" y="78"/>
      <point x="909" y="276" type="curve"/>
      <point x="793" y="268" type="line"/>
      <point x="897" y="68"/>
      <point x="1091" y="-30"/>
      <point x="1323" y="-30" type="curve" smooth="yes"/>
      <point x="1465" y="-30"/>
      <point x="1617" y="4"/>
      <point x="1721" y="54" type="curve"/>
      <point x="1721" y="362" type="line"/>
      <point x="1593" y="298"/>
      <point x="1473" y="270"/>
      <point x="1335" y="270" type="curve" smooth="yes"/>
      <point x="1203" y="270"/>
      <point x="1105" y="326"/>
      <point x="1097" y="408" type="curve"/>
      <point x="1819" y="408" type="line"/>
      <point x="1891" y="782"/>
      <point x="1679" y="1070"/>
      <point x="1333" y="1070" type="curve" smooth="yes"/>
      <point x="1161" y="1070"/>
      <point x="1005" y="994"/>
      <point x="875" y="854" type="curve"/>
      <point x="1037" y="824" type="line"/>
      <point x="953" y="998"/>
      <point x="781" y="1070"/>
      <point x="567" y="1070" type="curve" smooth="yes"/>
      <point x="433" y="1070"/>
      <point x="287" y="1038"/>
      <point x="161" y="976" type="curve"/>
      <point x="161" y="678" type="line"/>
      <point x="249" y="736"/>
      <point x="387" y="770"/>
      <point x="485" y="770" type="curve" smooth="yes"/>
      <point x="657" y="770"/>
      <point x="707" y="710"/>
      <point x="707" y="626" type="curve" smooth="yes"/>
      <point x="705" y="402" type="line" smooth="yes"/>
      <point x="705" y="290"/>
      <point x="625" y="250"/>
      <point x="531" y="250" type="curve" smooth="yes"/>
      <point x="459" y="250"/>
      <point x="415" y="276"/>
      <point x="415" y="328" type="curve" smooth="yes"/>
      <point x="415" y="430"/>
      <point x="573" y="450"/>
      <point x="751" y="412" type="curve"/>
      <point x="755" y="648" type="line"/>
      <point x="297" y="686"/>
      <point x="53" y="558"/>
      <point x="53" y="308" type="curve" smooth="yes"/>
      <point x="53" y="94"/>
      <point x="219" y="-30"/>
    </contour>
    <contour>
      <point x="1123" y="668" type="line"/>
      <point x="1127" y="740"/>
      <point x="1199" y="790"/>
      <point x="1299" y="790" type="curve" smooth="yes"/>
      <point x="1389" y="790"/>
      <point x="1455" y="740"/>
      <point x="1455" y="668" type="curve"/>
    </contour>
  </outline>
</glyph>
<glyph name="eth" format="2">
  <advance width="1255"/>
  <unicode hex="00F0"/>
  <outline>
    <contour>
      <point x="615" y="-30" type="curve" smooth="yes"/>
      <point x="955" y="-30"/>
      <point x="1203" y="228"/>
      <point x="1203" y="552" type="curve" smooth="yes"/>
      <point x="1203" y="912"/>
      <point x="943" y="1238"/>
      <point x="627" y="1440" type="curve"/>
      <point x="127" y="1440" type="line"/>
      <point x="311" y="1348"/>
      <point x="673" y="1042"/>
      <point x="761" y="816" type="curve"/>
      <point x="833" y="840" type="line"/>
      <point x="751" y="916"/>
      <point x="649" y="930"/>
      <point x="571" y="930" type="curve" smooth="yes"/>
      <point x="277" y="930"/>
      <point x="47" y="720"/>
      <point x="47" y="460" type="curve" smooth="yes"/>
      <point x="47" y="180"/>
      <point x="283" y="-30"/>
    </contour>
    <contour>
      <point x="615" y="300" type="curve" smooth="yes"/>
      <point x="509" y="300"/>
      <point x="435" y="374"/>
      <point x="435" y="480" type="curve" smooth="yes"/>
      <point x="435" y="586"/>
      <point x="509" y="660"/>
      <point x="615" y="660" type="curve" smooth="yes"/>
      <point x="721" y="660"/>
      <point x="795" y="586"/>
      <point x="795" y="480" type="curve" smooth="yes"/>
      <point x="795" y="374"/>
      <point x="721" y="300"/>
    </contour>
    <contour>
      <point x="255" y="932" type="line"/>
      <point x="627" y="1068" type="line"/>
      <point x="627" y="1082" type="line"/>
      <point x="997" y="1222" type="line"/>
      <point x="997" y="1440" type="line"/>
      <point x="627" y="1300" type="line"/>
      <point x="627" y="1286" type="line"/>
      <point x="255" y="1150" type="line"/>
    </contour>
  </outline>
</glyph>
<glyph name="thorn" format="2">
  <advance width="1358"/>
  <unicode hex="00FE"/>
  <outline>
    <contour>
      <point x="125" y="-420" type="line"/>
      <point x="523" y="-420" type="line"/>
      <point x="523" y="52" type="line"/>
      <point x="601" y="-4"/>
      <point x="691" y="-30"/>
      <point x="789" y="-30" type="curve" smooth="yes"/>
      <point x="1093" y="-30"/>
      <point x="1311" y="206"/>
      <point x="1311" y="520" type="curve" smooth="yes"/>
      <point x="1311" y="834"/>
      <point x="1093" y="1070"/>
      <point x="789" y="1070" type="curve" smooth="yes"/>
      <point x="691" y="1070"/>
      <point x="601" y="1044"/>
      <point x="523" y="988" type="curve"/>
      <point x="523" y="1480" type="line"/>
      <point x="125" y="1294" type="line"/>
    </contour>
    <contour>
      <point x="723" y="310" type="curve" smooth="yes"/>
      <point x="609" y="310"/>
      <point x="523" y="390"/>
      <point x="523" y="520" type="curve" smooth="yes"/>
      <point x="523" y="650"/>
      <point x="609" y="730"/>
      <point x="723" y="730" type="curve" smooth="yes"/>
      <point x="837" y="730"/>
      <point x="923" y="650"/>
      <point x="923" y="520" type="curve" smooth="yes"/>
      <point x="923" y="390"/>
      <point x="837" y="310"/>
    </contour>
  </outline>
</glyph>
<glyph name="Hbar" format="2">
  <advance width="1628"/>
  <unicode hex="0126"/>
  <outline>
    <contour>
      <point x="1048" y="0" type="line"/>
      <point x="1452" y="0" type="line"/>
      <point x="1452" y="1400" type="line"/>
      <point x="1048" y="1400" type="line"/>
    </contour>
    <contour>
      <point x="176" y="0" type="line"/>
      <point x="580" y="0" type="line"/>
      <point x="580" y="1400" type="line"/>
      <point x="176" y="1400" type="line"/>
    </contour>
    <contour>
      <point x="548" y="458" type="line"/>
      <point x="1080" y="458" type="line"/>
      <point x="1080" y="826" type="line"/>
      <point x="548" y="826" type="line"/>
    </contour>
    <contour>
      <point x="16" y="956" type="line"/>
      <point x="1612" y="956" type="line"/>
      <point x="1612" y="1264" type="line"/>
      <point x="16" y="1264" type="line"/>
    </contour>
  </outline>
</glyph>
<glyph name="idotless" format="2">
  <advance width="656"/>
  <unicode hex="0131"/>
  <anchor x="328" y="0" name="bottom"/>
  <anchor x="528" y="0" name="ogonek"/>
  <anchor x="328" y="1040" name="top"/>
  <outline>
    <contour>
      <point x="128" y="0" type="line"/>
      <point x="528" y="0" type="line"/>
      <point x="528" y="1100" type="line"/>
      <point x="128" y="914" type="line"/>
    </contour>
  </outline>
</glyph>
<glyph name="Lslash" format="2">
  <advance width="1184"/>
  <unicode hex="0141"/>
  <anchor x="661" y="0" name="bottom"/>
  <anchor x="597" y="1440" name="caron"/>
  <anchor x="395" y="1400" name="top"/>
  <outline>
    <contour>
      <point x="-25" y="356" type="line"/>
      <point x="367" y="538" type="line"/>
      <point x="367" y="498" type="line"/>
      <point x="1021" y="804" type="line"/>
      <point x="1021" y="1152" type="line"/>
      <point x="367" y="846" type="line"/>
      <point x="367" y="886" type="line"/>
      <point x="-25" y="704" type="line"/>
    </contour>
    <component base="L" xOffset="40"/>
  </outline>
</glyph>
<glyph name="lslash" format="2">
  <advance width="810"/>
  <unicode hex="0142"/>
  <anchor x="405" y="0" name="bottom"/>
  <anchor x="605" y="1440" name="caron"/>
  <anchor x="405" y="1440" name="top"/>
  <outline>
    <contour>
      <point x="13" y="340" type="line"/>
      <point x="405" y="530" type="line"/>
      <point x="405" y="490" type="line"/>
      <point x="797" y="672" type="line"/>
      <point x="797" y="1020" type="line"/>
      <point x="405" y="838" type="line"/>
      <point x="405" y="878" type="line"/>
      <point x="13" y="688" type="line"/>
    </contour>
    <component base="l" xOffset="80"/>
  </outline>
</glyph>
<glyph name="OE" format="2">
  <advance width="2304"/>
  <unicode hex="0152"/>
  <outline>
    <contour>
      <point x="804" y="-30" type="curve" smooth="yes"/>
      <point x="992" y="-30"/>
      <point x="1158" y="34"/>
      <point x="1288" y="140" type="curve"/>
      <point x="1194" y="254" type="line"/>
      <point x="1194" y="0" type="line"/>
      <point x="2160" y="0" type="line"/>
      <point x="2240" y="352" type="line"/>
      <point x="1558" y="352" type="line"/>
      <point x="1558" y="552" type="line"/>
      <point x="2078" y="552" type="line"/>
      <point x="2078" y="870" type="line"/>
      <point x="1558" y="870" type="line"/>
      <point x="1558" y="1052" type="line"/>
      <point x="2192" y="1052" type="line"/>
      <point x="2192" y="1400" type="line"/>
      <point x="1194" y="1400" type="line"/>
      <point x="1194" y="1144" type="line"/>
      <point x="1288" y="1256" type="line"/>
      <point x="1158" y="1366"/>
      <point x="992" y="1430"/>
      <point x="804" y="1430" type="curve" smooth="yes"/>
      <point x="378" y="1430"/>
      <point x="70" y="1116"/>
      <point x="70" y="700" type="curve" smooth="yes"/>
      <point x="70" y="286"/>
      <point x="378" y="-30"/>
    </contour>
    <contour>
      <point x="824" y="348" type="curve" smooth="yes"/>
      <point x="630" y="348"/>
      <point x="494" y="484"/>
      <point x="494" y="700" type="curve" smooth="yes"/>
      <point x="494" y="916"/>
      <point x="630" y="1052"/>
      <point x="824" y="1052" type="curve" smooth="yes"/>
      <point x="1018" y="1052"/>
      <point x="1154" y="916"/>
      <point x="1154" y="700" type="curve" smooth="yes"/>
      <point x="1154" y="484"/>
      <point x="1018" y="348"/>
    </contour>
  </outline>
</glyph>
<glyph name="oe" format="2">
  <advance width="2004"/>
  <unicode hex="0153"/>
  <outline>
    <contour>
      <point x="623" y="-30" type="curve" smooth="yes"/>
      <point x="955" y="-30"/>
      <point x="1183" y="232"/>
      <point x="1183" y="520" type="curve" smooth="yes"/>
      <point x="1183" y="820"/>
      <point x="955" y="1070"/>
      <point x="623" y="1070" type="curve" smooth="yes"/>
      <point x="283" y="1070"/>
      <point x="47" y="808"/>
      <point x="47" y="520" type="curve" smooth="yes"/>
      <point x="47" y="220"/>
      <point x="283" y="-30"/>
    </contour>
    <contour>
      <point x="635" y="310" type="curve" smooth="yes"/>
      <point x="523" y="310"/>
      <point x="435" y="390"/>
      <point x="435" y="520" type="curve" smooth="yes"/>
      <point x="435" y="650"/>
      <point x="521" y="730"/>
      <point x="635" y="730" type="curve" smooth="yes"/>
      <point x="749" y="730"/>
      <point x="835" y="650"/>
      <point x="835" y="520" type="curve" smooth="yes"/>
      <point x="835" y="390"/>
      <point x="747" y="310"/>
    </contour>
    <contour>
      <point x="1429" y="-30" type="curve" smooth="yes"/>
      <point x="1585" y="-30"/>
      <point x="1791" y="28"/>
      <point x="1881" y="98" type="curve"/>
      <point x="1765" y="362" type="line"/>
      <point x="1657" y="298"/>
      <point x="1551" y="270"/>
      <point x="1425" y="270" type="curve" smooth="yes"/>
      <point x="1295" y="270"/>
      <point x="1201" y="326"/>
      <point x="1193" y="408" type="curve"/>
      <point x="1943" y="408" type="line"/>
      <point x="2017" y="786"/>
      <point x="1795" y="1070"/>
      <point x="1425" y="1070" type="curve" smooth="yes"/>
      <point x="1103" y="1070"/>
      <point x="875" y="844"/>
      <point x="875" y="522" type="curve" smooth="yes"/>
      <point x="875" y="190"/>
      <point x="1095" y="-30"/>
    </contour>
    <contour>
      <point x="1219" y="668" type="line"/>
      <point x="1225" y="740"/>
      <point x="1299" y="790"/>
      <point x="1401" y="790" type="curve" smooth="yes"/>
      <point x="1499" y="790"/>
      <point x="1567" y="740"/>
      <point x="1567" y="668" type="curve"/>
    </contour>
  </outline>
</glyph>
<glyph name="Schwa" format="2">
  <advance width="1602"/>
  <unicode hex="018F"/>
  <outline>
    <contour>
      <point x="775" y="-30" type="curve" smooth="yes"/>
      <point x="1245" y="-30"/>
      <point x="1535" y="306"/>
      <point x="1535" y="700" type="curve" smooth="yes"/>
      <point x="1535" y="1168"/>
      <point x="1213" y="1430"/>
      <point x="747" y="1430" type="curve" smooth="yes"/>
      <point x="562" y="1430"/>
      <point x="414" y="1386"/>
      <point x="297" y="1326" type="curve"/>
      <point x="297" y="924" type="line"/>
      <point x="403" y="1012"/>
      <point x="563" y="1056"/>
      <point x="721" y="1056" type="curve" smooth="yes"/>
      <point x="987" y="1056"/>
      <point x="1121" y="920"/>
      <point x="1121" y="700" type="curve" smooth="yes"/>
      <point x="1121" y="458"/>
      <point x="1017" y="308"/>
      <point x="777" y="308" type="curve" smooth="yes"/>
      <point x="577" y="308"/>
      <point x="447" y="428"/>
      <point x="463" y="684" type="curve"/>
      <point x="293" y="526" type="line"/>
      <point x="1287" y="526" type="line"/>
      <point x="1293" y="822" type="line"/>
      <point x="77" y="822" type="line"/>
      <point x="7" y="290"/>
      <point x="301" y="-30"/>
    </contour>
  </outline>
</glyph>
<glyph name="Oogonek" format="2">
  <advance width="1642"/>
  <unicode hex="01EA"/>
  <anchor x="821" y="1400" name="top"/>
  <outline>
    <contour>
      <point x="815" y="-145" type="curve" smooth="yes"/>
      <point x="815" y="-83"/>
      <point x="865" y="-36"/>
      <point x="969" y="-17" type="curve"/>
      <point x="992" y="101" type="line"/>
      <point x="742" y="73"/>
      <point x="581" y="-52"/>
      <point x="581" y="-219" type="curve" smooth="yes"/>
      <point x="581" y="-354"/>
      <point x="685" y="-450"/>
      <point x="831" y="-450" type="curve" smooth="yes"/>
      <point x="903" y="-450"/>
      <point x="976" y="-432"/>
      <point x="1039" y="-400" type="curve"/>
      <point x="1039" y="-174" type="line"/>
      <point x="1000" y="-204"/>
      <point x="947" y="-222"/>
      <point x="897" y="-222" type="curve" smooth="yes"/>
      <point x="847" y="-222"/>
      <point x="815" y="-192"/>
    </contour>
    <contour>
      <point x="821" y="-30" type="curve" smooth="yes"/>
      <point x="1257" y="-30"/>
      <point x="1575" y="286"/>
      <point x="1575" y="700" type="curve" smooth="yes"/>
      <point x="1575" y="1108"/>
      <point x="1257" y="1430"/>
      <point x="821" y="1430" type="curve" smooth="yes"/>
      <point x="383" y="1430"/>
      <point x="67" y="1116"/>
      <point x="67" y="700" type="curve" smooth="yes"/>
      <point x="67" y="286"/>
      <point x="383" y="-30"/>
    </contour>
    <contour>
      <point x="821" y="348" type="curve" smooth="yes"/>
      <point x="627" y="348"/>
      <point x="491" y="484"/>
      <point x="491" y="700" type="curve" smooth="yes"/>
      <point x="491" y="916"/>
      <point x="627" y="1052"/>
      <point x="821" y="1052" type="curve" smooth="yes"/>
      <point x="1015" y="1052"/>
      <point x="1151" y="916"/>
      <point x="1151" y="700" type="curve" smooth="yes"/>
      <point x="1151" y="484"/>
      <point x="1015" y="348"/>
    </contour>
  </outline>
</glyph>
<glyph name="oogonek" format="2">
  <advance width="1270"/>
  <unicode hex="01EB"/>
  <anchor x="635" y="1040" name="top"/>
  <outline>
    <contour>
      <point x="659" y="-450" type="curve" smooth="yes"/>
      <point x="731" y="-450"/>
      <point x="804" y="-432"/>
      <point x="867" y="-400" type="curve"/>
      <point x="867" y="-174" type="line"/>
      <point x="828" y="-204"/>
      <point x="775" y="-222"/>
      <point x="725" y="-222" type="curve" smooth="yes"/>
      <point x="675" y="-222"/>
      <point x="643" y="-192"/>
      <point x="643" y="-145" type="curve" smooth="yes"/>
      <point x="643" y="-81"/>
      <point x="692" y="-33"/>
      <point x="781" y="-14" type="curve" smooth="yes"/>
      <point x="1049" y="43"/>
      <point x="1223" y="274"/>
      <point x="1223" y="520" type="curve" smooth="yes"/>
      <point x="1223" y="820"/>
      <point x="983" y="1070"/>
      <point x="635" y="1070" type="curve" smooth="yes"/>
      <point x="287" y="1070"/>
      <point x="47" y="808"/>
      <point x="47" y="520" type="curve" smooth="yes"/>
      <point x="47" y="264"/>
      <point x="222" y="44"/>
      <point x="491" y="-15" type="curve"/>
      <point x="438" y="-70"/>
      <point x="409" y="-139"/>
      <point x="409" y="-219" type="curve" smooth="yes"/>
      <point x="409" y="-354"/>
      <point x="513" y="-450"/>
    </contour>
    <contour>
      <point x="635" y="310" type="curve" smooth="yes"/>
      <point x="523" y="310"/>
      <point x="435" y="390"/>
      <point x="435" y="520" type="curve" smooth="yes"/>
      <point x="435" y="650"/>
      <point x="521" y="730"/>
      <point x="635" y="730" type="curve" smooth="yes"/>
      <point x="749" y="730"/>
      <point x="835" y="650"/>
      <point x="835" y="520" type="curve" smooth="yes"/>
      <point x="835" y="390"/>
      <point x="747" y="310"/>
    </contour>
  </outline>
</glyph>
<glyph name="jdotless" format="2">
  <advance width="656"/>
  <unicode hex="0237"/>
  <anchor x="328" y="1040" name="top"/>
  <outline>
    <contour>
      <point x="116" y="-450" type="curve" smooth="yes"/>
      <point x="360" y="-450"/>
      <point x="528" y="-280"/>
      <point x="528" y="-36" type="curve" smooth="yes"/>
      <point x="528" y="1100" type="line"/>
      <point x="128" y="914" type="line"/>
      <point x="128" y="-14" type="line" smooth="yes"/>
      <point x="128" y="-90"/>
      <point x="94" y="-126"/>
      <point x="26" y="-126" type="curve" smooth="yes"/>
      <point x="-12" y="-126"/>
      <point x="-44" y="-118"/>
      <point x="-78" y="-100" type="curve"/>
      <point x="-78" y="-424" type="line"/>
      <point x="-22" y="-444"/>
      <point x="34" y="-450"/>
    </contour>
  </outline>
</glyph>
<glyph name="circumflexcomb" format="2">
  <unicode hex="0302"/>
  <anchor x="-638" y="1040" name="_top"/>
  <anchor x="-638" y="1484" name="top"/>
  <anchor x="-158" y="1384" name="top_right"/>
  <outline>
    <contour>
      <point x="-1118" y="1170" type="line"/>
      <point x="-760" y="1170" type="line"/>
      <point x="-644" y="1328" type="line"/>
      <point x="-530" y="1170" type="line"/>
      <point x="-158" y="1170" type="line"/>
      <point x="-468" y="1544" type="line"/>
      <point x="-808" y="1544" type="line"/>
    </contour>
  </outline>
</glyph>
<glyph name="tildecomb" format="2">
  <unicode hex="0303"/>
  <anchor x="437" y="1040" name="_top"/>
  <anchor x="437" y="1464" name="top"/>
  <outline>
    <contour>
      <point x="10" y="1178" type="line"/>
      <point x="65" y="1240"/>
      <point x="137" y="1280"/>
      <point x="217" y="1280" type="curve" smooth="yes"/>
      <point x="334" y="1280"/>
      <point x="487" y="1180"/>
      <point x="637" y="1180" type="curve" smooth="yes"/>
      <point x="733" y="1180"/>
      <point x="805" y="1218"/>
      <point x="865" y="1277" type="curve"/>
      <point x="865" y="1536" type="line"/>
      <point x="811" y="1474"/>
      <point x="739" y="1434"/>
      <point x="659" y="1434" type="curve" smooth="yes"/>
      <point x="542" y="1434"/>
      <point x="389" y="1534"/>
      <point x="239" y="1534" type="curve" smooth="yes"/>
      <point x="142" y="1534"/>
      <point x="69" y="1496"/>
      <point x="10" y="1438" type="curve"/>
    </contour>
  </outline>
</glyph>
<glyph name="caroncomb" format="2">
  <unicode hex="030C"/>
  <anchor x="490" y="1040" name="_top"/>
  <outline>
    <contour>
      <point x="320" y="1170" type="line"/>
      <point x="660" y="1170" type="line"/>
      <point x="970" y="1544" type="line"/>
      <point x="612" y="1544" type="line"/>
      <point x="496" y="1386" type="line"/>
      <point x="382" y="1544" type="line"/>
      <point x="10" y="1544" type="line"/>
    </contour>
  </outline>
</glyph>
<glyph name="commaturnedabovecomb" format="2">
  <unicode hex="0312"/>
  <anchor x="-638" y="1040" name="_top"/>
  <outline>
    <contour>
      <point x="-626" y="1174" type="curve" smooth="yes"/>
      <point x="-501" y="1174"/>
      <point x="-415" y="1254"/>
      <point x="-415" y="1380" type="curve" smooth="yes"/>
      <point x="-415" y="1509"/>
      <point x="-538" y="1584"/>
      <point x="-652" y="1560" type="curve"/>
      <point x="-627" y="1645"/>
      <point x="-529" y="1675"/>
      <point x="-410" y="1685" type="curve"/>
      <point x="-410" y="1882" type="line"/>
      <point x="-734" y="1854"/>
      <point x="-885" y="1675"/>
      <point x="-885" y="1438" type="curve" smooth="yes"/>
      <point x="-885" y="1270"/>
      <point x="-764" y="1174"/>
    </contour>
  </outline>
</glyph>
<glyph name="horncomb" format="2">
  <unicode hex="031B"/>
  <anchor x="408" y="1040" name="_horn"/>
  <outline>
    <contour>
      <point x="476" y="760" type="curve" smooth="yes"/>
      <point x="652" y="760"/>
      <point x="768" y="876"/>
      <point x="768" y="1022" type="curve" smooth="yes"/>
      <point x="768" y="1086"/>
      <point x="746" y="1158"/>
      <point x="700" y="1224" type="curve"/>
      <point x="410" y="1224" type="line"/>
      <point x="462" y="1157"/>
      <point x="484" y="1092"/>
      <point x="484" y="1046" type="curve" smooth="yes"/>
      <point x="484" y="1010"/>
      <point x="458" y="984"/>
      <point x="408" y="984" type="curve" smooth="yes"/>
      <point x="328" y="984"/>
      <point x="206" y="1070"/>
      <point x="10" y="1070" type="curve"/>
      <point x="12" y="860" type="line"/>
      <point x="168" y="860"/>
      <point x="328" y="760"/>
    </contour>
  </outline>
</glyph>
<glyph name="dotbelowcomb" format="2">
  <unicode hex="0323"/>
  <anchor x="240" y="0" name="_bottom"/>
  <outline>
    <contour>
      <point x="240" y="-558" type="curve" smooth="yes"/>
      <point x="364" y="-558"/>
      <point x="470" y="-478"/>
      <point x="470" y="-346" type="curve" smooth="yes"/>
      <point x="470" y="-214"/>
      <point x="364" y="-134"/>
      <point x="240" y="-134" type="curve" smooth="yes"/>
      <point x="116" y="-134"/>
      <point x="10" y="-214"/>
      <point x="10" y="-346" type="curve" smooth="yes"/>
      <point x="10" y="-478"/>
      <point x="116" y="-558"/>
    </contour>
  </outline>
</glyph>
<glyph name="commaaccentcomb" format="2">
  <unicode hex="0326"/>
  <anchor x="-638" y="0" name="_bottom"/>
  <outline>
    <contour>
      <point x="-866" y="-842" type="line"/>
      <point x="-542" y="-814"/>
      <point x="-391" y="-635"/>
      <point x="-391" y="-398" type="curve" smooth="yes"/>
      <point x="-391" y="-230"/>
      <point x="-512" y="-134"/>
      <point x="-650" y="-134" type="curve" smooth="yes"/>
      <point x="-775" y="-134"/>
      <point x="-861" y="-214"/>
      <point x="-861" y="-340" type="curve" smooth="yes"/>
      <point x="-861" y="-469"/>
      <point x="-738" y="-544"/>
      <point x="-624" y="-520" type="curve"/>
      <point x="-649" y="-605"/>
      <point x="-747" y="-635"/>
      <point x="-866" y="-645" type="curve"/>
    </contour>
  </outline>
</glyph>
<glyph name="brevebelowcomb" format="2">
  <unicode hex="032E"/>
  <anchor x="448" y="0" name="_bottom"/>
  <outline>
    <contour>
      <point x="448" y="-514" type="curve" smooth="yes"/>
      <point x="710" y="-514"/>
      <point x="890" y="-356"/>
      <point x="886" y="-130" type="curve"/>
      <point x="566" y="-130" type="line"/>
      <point x="570" y="-212"/>
      <point x="524" y="-264"/>
      <point x="448" y="-264" type="curve" smooth="yes"/>
      <point x="372" y="-264"/>
      <point x="326" y="-212"/>
      <point x="330" y="-130" type="curve"/>
      <point x="10" y="-130" type="line"/>
      <point x="6" y="-360"/>
      <point x="180" y="-514"/>
    </contour>
  </outline>
</glyph>
<glyph name="tonos" format="2">
  <advance width="550"/>
  <unicode hex="0384"/>
  <guideline x="250" y="928" angle="90"/>
  <anchor x="250" y="1040" name="_top"/>
  <outline>
    <contour>
      <point x="42" y="1170" type="line"/>
      <point x="402" y="1170" type="line"/>
      <point x="578" y="1544" type="line"/>
      <point x="182" y="1544" type="line"/>
    </contour>
  </outline>
</glyph>
<glyph name="dieresistonos" format="2">
  <unicode hex="0385"/>
  <anchor x="-638" y="1040" name="_top"/>
  <outline>
    <contour>
      <point x="-784" y="1330" type="line"/>
      <point x="-544" y="1330" type="line"/>
      <point x="-422" y="1704" type="line"/>
      <point x="-738" y="1704" type="line"/>
    </contour>
    <contour>
      <point x="-1012" y="1186" type="curve" smooth="yes"/>
      <point x="-908" y="1186"/>
      <point x="-828" y="1260"/>
      <point x="-828" y="1374" type="curve" smooth="yes"/>
      <point x="-828" y="1484"/>
      <point x="-910" y="1562"/>
      <point x="-1012" y="1562" type="curve" smooth="yes"/>
      <point x="-1116" y="1562"/>
      <point x="-1196" y="1488"/>
      <point x="-1196" y="1374" type="curve" smooth="yes"/>
      <point x="-1196" y="1260"/>
      <point x="-1116" y="1186"/>
    </contour>
    <contour>
      <point x="-264" y="1186" type="curve" smooth="yes"/>
      <point x="-160" y="1186"/>
      <point x="-80" y="1260"/>
      <point x="-80" y="1374" type="curve" smooth="yes"/>
      <point x="-80" y="1488"/>
      <point x="-160" y="1562"/>
      <point x="-264" y="1562" type="curve" smooth="yes"/>
      <point x="-368" y="1562"/>
      <point x="-448" y="1490"/>
      <point x="-448" y="1374" type="curve" smooth="yes"/>
      <point x="-448" y="1260"/>
      <point x="-368" y="1186"/>
    </contour>
  </outline>
</glyph>
<glyph name="Delta" format="2">
  <advance width="1448"/>
  <unicode hex="0394"/>
  <guideline x="1388" y="168" angle="270"/>
  <outline>
    <contour>
      <point x="57" y="0" type="line"/>
      <point x="1354" y="0" type="line"/>
      <point x="1416" y="274" type="line"/>
      <point x="961" y="1400" type="line"/>
      <point x="491" y="1400" type="line"/>
      <point x="57" y="336" type="line"/>
    </contour>
    <contour>
      <point x="491" y="368" type="line"/>
      <point x="721" y="946" type="line"/>
      <point x="951" y="368" type="line"/>
    </contour>
  </outline>
</glyph>
<glyph name="Lambda" format="2">
  <advance width="1464"/>
  <unicode hex="039B"/>
  <outline>
    <contour>
      <point x="2" y="0" type="line"/>
      <point x="452" y="0" type="line"/>
      <point x="728" y="890" type="line"/>
      <point x="1004" y="0" type="line"/>
      <point x="1462" y="0" type="line"/>
      <point x="968" y="1400" type="line"/>
      <point x="498" y="1400" type="line"/>
    </contour>
  </outline>
</glyph>
<glyph name="Xi" format="2">
  <advance width="1274"/>
  <unicode hex="039E"/>
  <guideline x="49" y="613" angle="257.1957"/>
  <guideline x="49" y="613" angle="90"/>
  <guideline x="585" y="88" angle="257.1957"/>
  <outline>
    <contour>
      <point x="81" y="0" type="line"/>
      <point x="1133" y="0" type="line"/>
      <point x="1213" y="352" type="line"/>
      <point x="81" y="352" type="line"/>
    </contour>
    <contour>
      <point x="189" y="548" type="line"/>
      <point x="1031" y="548" type="line"/>
      <point x="1031" y="866" type="line"/>
      <point x="259" y="866" type="line"/>
    </contour>
    <contour>
      <point x="61" y="1052" type="line"/>
      <point x="1153" y="1052" type="line"/>
      <point x="1153" y="1400" type="line"/>
      <point x="141" y="1400" type="line"/>
    </contour>
  </outline>
</glyph>
<glyph name="Psi" format="2">
  <advance width="1849"/>
  <unicode hex="03A8"/>
  <outline>
    <contour>
      <point x="726" y="0" type="line"/>
      <point x="1126" y="0" type="line"/>
      <point x="1126" y="254" type="line"/>
      <point x="1542" y="298"/>
      <point x="1725" y="534"/>
      <point x="1725" y="953" type="curve" smooth="yes"/>
      <point x="1725" y="1086"/>
      <point x="1710" y="1235"/>
      <point x="1668" y="1400" type="curve"/>
      <point x="1281" y="1400" type="line"/>
      <point x="1318" y="1261"/>
      <point x="1340" y="1117"/>
      <point x="1340" y="953" type="curve" smooth="yes"/>
      <point x="1340" y="766"/>
      <point x="1284" y="645"/>
      <point x="1126" y="622" type="curve"/>
      <point x="1126" y="1400" type="line"/>
      <point x="726" y="1400" type="line"/>
      <point x="726" y="622" type="line"/>
      <point x="567" y="645"/>
      <point x="510" y="767"/>
      <point x="510" y="955" type="curve" smooth="yes"/>
      <point x="510" y="1119"/>
      <point x="532" y="1260"/>
      <point x="569" y="1400" type="curve"/>
      <point x="182" y="1400" type="line"/>
      <point x="140" y="1235"/>
      <point x="124" y="1086"/>
      <point x="124" y="953" type="curve" smooth="yes"/>
      <point x="124" y="535"/>
      <point x="308" y="299"/>
      <point x="726" y="254" type="curve"/>
    </contour>
  </outline>
</glyph>
<glyph name="alpha" format="2">
  <advance width="1401"/>
  <unicode hex="03B1"/>
  <anchor x="723" y="1040" name="top"/>
  <outline>
    <contour>
      <point x="545" y="-30" type="curve" smooth="yes"/>
      <point x="691" y="-30"/>
      <point x="799" y="30"/>
      <point x="887" y="150" type="curve"/>
      <point x="937" y="-2"/>
      <point x="1109" y="-69"/>
      <point x="1321" y="-5" type="curve"/>
      <point x="1321" y="322" type="line"/>
      <point x="1173" y="290"/>
      <point x="1141" y="342"/>
      <point x="1177" y="520" type="curve" smooth="yes"/>
      <point x="1277" y="1040" type="line"/>
      <point x="911" y="1040" type="line"/>
      <point x="885" y="890" type="line"/>
      <point x="807" y="1016"/>
      <point x="681" y="1070"/>
      <point x="541" y="1070" type="curve" smooth="yes"/>
      <point x="275" y="1070"/>
      <point x="47" y="870"/>
      <point x="47" y="520" type="curve" smooth="yes"/>
      <point x="47" y="172"/>
      <point x="279" y="-30"/>
    </contour>
    <contour>
      <point x="593" y="310" type="curve" smooth="yes"/>
      <point x="513" y="310"/>
      <point x="435" y="382"/>
      <point x="435" y="522" type="curve" smooth="yes"/>
      <point x="435" y="652"/>
      <point x="501" y="730"/>
      <point x="595" y="730" type="curve" smooth="yes"/>
      <point x="685" y="730"/>
      <point x="763" y="658"/>
      <point x="779" y="538" type="curve"/>
      <point x="757" y="378"/>
      <point x="671" y="310"/>
    </contour>
  </outline>
</glyph>
<glyph name="delta" format="2">
  <advance width="1220"/>
  <unicode hex="03B4"/>
  <outline>
    <contour>
      <point x="610" y="-30" type="curve" smooth="yes"/>
      <point x="966" y="-30"/>
      <point x="1170" y="196"/>
      <point x="1170" y="464" type="curve" smooth="yes"/>
      <point x="1170" y="712"/>
      <point x="1014" y="838"/>
      <point x="806" y="936" type="curve" smooth="yes"/>
      <point x="646" y="1012"/>
      <point x="558" y="1034"/>
      <point x="558" y="1092" type="curve" smooth="yes"/>
      <point x="558" y="1134"/>
      <point x="604" y="1160"/>
      <point x="704" y="1160" type="curve" smooth="yes"/>
      <point x="752" y="1160"/>
      <point x="864" y="1156"/>
      <point x="1016" y="1076" type="curve"/>
      <point x="1016" y="1400" type="line"/>
      <point x="882" y="1454"/>
      <point x="766" y="1470"/>
      <point x="660" y="1470" type="curve" smooth="yes"/>
      <point x="398" y="1470"/>
      <point x="178" y="1362"/>
      <point x="178" y="1142" type="curve" smooth="yes"/>
      <point x="178" y="966"/>
      <point x="318" y="886"/>
      <point x="362" y="858" type="curve"/>
      <point x="164" y="794"/>
      <point x="50" y="654"/>
      <point x="50" y="462" type="curve" smooth="yes"/>
      <point x="50" y="194"/>
      <point x="254" y="-30"/>
    </contour>
    <contour>
      <point x="610" y="302" type="curve" smooth="yes"/>
      <point x="506" y="302"/>
      <point x="434" y="374"/>
      <point x="434" y="470" type="curve" smooth="yes"/>
      <point x="434" y="564"/>
      <point x="504" y="630"/>
      <point x="610" y="662" type="curve"/>
      <point x="716" y="630"/>
      <point x="786" y="564"/>
      <point x="786" y="470" type="curve" smooth="yes"/>
      <point x="786" y="374"/>
      <point x="714" y="302"/>
    </contour>
  </outline>
</glyph>
<glyph name="zeta" format="2">
  <advance width="1055"/>
  <unicode hex="03B6"/>
  <outline>
    <contour>
      <point x="977" y="-420" type="line"/>
      <point x="1032" y="-308"/>
      <point x="1064" y="-190"/>
      <point x="1064" y="-100" type="curve" smooth="yes"/>
      <point x="1064" y="266"/>
      <point x="454" y="286"/>
      <point x="454" y="508" type="curve" smooth="yes"/>
      <point x="454" y="649"/>
      <point x="588" y="821"/>
      <point x="1061" y="1180" type="curve"/>
      <point x="1061" y="1440" type="line"/>
      <point x="157" y="1440" type="line"/>
      <point x="77" y="1112" type="line"/>
      <point x="551" y="1112" type="line"/>
      <point x="284" y="943"/>
      <point x="57" y="729"/>
      <point x="57" y="456" type="curve" smooth="yes"/>
      <point x="57" y="22"/>
      <point x="688" y="34"/>
      <point x="688" y="-204" type="curve" smooth="yes"/>
      <point x="688" y="-254"/>
      <point x="657" y="-329"/>
      <point x="599" y="-420" type="curve"/>
    </contour>
  </outline>
</glyph>
<glyph name="iota" format="2">
  <advance width="759"/>
  <unicode hex="03B9"/>
  <anchor x="315" y="1040" name="top"/>
  <outline>
    <contour>
      <point x="507" y="-28" type="curve" smooth="yes"/>
      <point x="565" y="-28"/>
      <point x="631" y="-22"/>
      <point x="699" y="-6" type="curve"/>
      <point x="699" y="316" type="line"/>
      <point x="667" y="308"/>
      <point x="641" y="304"/>
      <point x="617" y="304" type="curve" smooth="yes"/>
      <point x="551" y="304"/>
      <point x="515" y="336"/>
      <point x="515" y="426" type="curve" smooth="yes"/>
      <point x="515" y="1100" type="line"/>
      <point x="115" y="914" type="line"/>
      <point x="115" y="384" type="line" smooth="yes"/>
      <point x="115" y="98"/>
      <point x="267" y="-28"/>
    </contour>
  </outline>
</glyph>
<glyph name="kappa" format="2">
  <advance width="1258"/>
  <unicode hex="03BA"/>
  <outline>
    <contour>
      <point x="125" y="0" type="line"/>
      <point x="525" y="0" type="line"/>
      <point x="525" y="320" type="line"/>
      <point x="597" y="382" type="line"/>
      <point x="777" y="0" type="line"/>
      <point x="1217" y="0" type="line"/>
      <point x="875" y="616" type="line"/>
      <point x="927" y="656" type="line" smooth="yes"/>
      <point x="987" y="702"/>
      <point x="1051" y="728"/>
      <point x="1141" y="730" type="curve"/>
      <point x="1141" y="1066" type="line"/>
      <point x="927" y="1094"/>
      <point x="821" y="1020"/>
      <point x="703" y="914" type="curve" smooth="yes"/>
      <point x="525" y="756" type="line"/>
      <point x="525" y="1100" type="line"/>
      <point x="125" y="914" type="line"/>
    </contour>
  </outline>
</glyph>
<glyph name="lambda" format="2">
  <advance width="1266"/>
  <unicode hex="03BB"/>
  <outline>
    <contour>
      <point x="10" y="0" type="line"/>
      <point x="430" y="0" type="line"/>
      <point x="630" y="638" type="line"/>
      <point x="822" y="0" type="line"/>
      <point x="1256" y="0" type="line"/>
      <point x="836" y="1118" type="line" smooth="yes"/>
      <point x="734" y="1389"/>
      <point x="584" y="1470"/>
      <point x="360" y="1470" type="curve" smooth="yes"/>
      <point x="276" y="1470"/>
      <point x="162" y="1456"/>
      <point x="116" y="1438" type="curve"/>
      <point x="114" y="1104" type="line"/>
      <point x="184" y="1124"/>
      <point x="250" y="1132"/>
      <point x="304" y="1132" type="curve" smooth="yes"/>
      <point x="366" y="1132"/>
      <point x="424" y="1114"/>
      <point x="438" y="1056" type="curve" smooth="yes"/>
      <point x="442" y="1040" type="line"/>
    </contour>
  </outline>
</glyph>
<glyph name="nu" format="2">
  <advance width="1229"/>
  <unicode hex="03BD"/>
  <outline>
    <contour>
      <point x="355" y="0" type="line"/>
      <point x="795" y="0" type="line"/>
      <point x="993" y="324"/>
      <point x="1139" y="694"/>
      <point x="1187" y="1040" type="curve"/>
      <point x="771" y="1040" type="line"/>
      <point x="737" y="808"/>
      <point x="671" y="526"/>
      <point x="575" y="338" type="curve"/>
      <point x="613" y="346" type="line"/>
      <point x="433" y="1040" type="line"/>
      <point x="7" y="1040" type="line"/>
    </contour>
  </outline>
</glyph>
<glyph name="pi" format="2">
  <advance width="1406"/>
  <unicode hex="03C0"/>
  <outline>
    <contour>
      <point x="1127" y="-30" type="curve" smooth="yes"/>
      <point x="1187" y="-30"/>
      <point x="1253" y="-22"/>
      <point x="1325" y="-4" type="curve"/>
      <point x="1325" y="316" type="line"/>
      <point x="1291" y="308"/>
      <point x="1261" y="302"/>
      <point x="1235" y="302" type="curve" smooth="yes"/>
      <point x="1181" y="302"/>
      <point x="1139" y="334"/>
      <point x="1139" y="408" type="curve" smooth="yes"/>
      <point x="1139" y="712" type="line"/>
      <point x="1325" y="712" type="line"/>
      <point x="1325" y="1040" type="line"/>
      <point x="77" y="1040" type="line"/>
      <point x="-3" y="712" type="line"/>
      <point x="193" y="712" type="line"/>
      <point x="173" y="0" type="line"/>
      <point x="569" y="0" type="line"/>
      <point x="589" y="712" type="line"/>
      <point x="757" y="712" type="line"/>
      <point x="757" y="378" type="line" smooth="yes"/>
      <point x="757" y="90"/>
      <point x="901" y="-30"/>
    </contour>
  </outline>
</glyph>
<glyph name="rho" format="2">
  <advance width="1334"/>
  <unicode hex="03C1"/>
  <outline>
    <contour>
      <point x="98" y="-420" type="line"/>
      <point x="496" y="-420" type="line"/>
      <point x="496" y="52" type="line"/>
      <point x="574" y="-4"/>
      <point x="664" y="-30"/>
      <point x="762" y="-30" type="curve" smooth="yes"/>
      <point x="1066" y="-30"/>
      <point x="1284" y="206"/>
      <point x="1284" y="520" type="curve" smooth="yes"/>
      <point x="1284" y="820"/>
      <point x="1044" y="1070"/>
      <point x="696" y="1070" type="curve" smooth="yes"/>
      <point x="338" y="1070"/>
      <point x="98" y="826"/>
      <point x="98" y="494" type="curve" smooth="yes"/>
    </contour>
    <contour>
      <point x="696" y="310" type="curve" smooth="yes"/>
      <point x="582" y="310"/>
      <point x="496" y="390"/>
      <point x="496" y="520" type="curve" smooth="yes"/>
      <point x="496" y="650"/>
      <point x="584" y="730"/>
      <point x="696" y="730" type="curve" smooth="yes"/>
      <point x="808" y="730"/>
      <point x="896" y="650"/>
      <point x="896" y="520" type="curve" smooth="yes"/>
      <point x="896" y="390"/>
      <point x="810" y="310"/>
    </contour>
  </outline>
</glyph>
<glyph name="sigmafinal" format="2">
  <advance width="992"/>
  <unicode hex="03C2"/>
  <outline>
    <contour>
      <point x="970" y="-420" type="line"/>
      <point x="1025" y="-308"/>
      <point x="1057" y="-190"/>
      <point x="1057" y="-100" type="curve" smooth="yes"/>
      <point x="1057" y="287"/>
      <point x="444" y="280"/>
      <point x="444" y="540" type="curve" smooth="yes"/>
      <point x="444" y="654"/>
      <point x="528" y="730"/>
      <point x="672" y="730" type="curve" smooth="yes"/>
      <point x="768" y="730"/>
      <point x="860" y="702"/>
      <point x="940" y="638" type="curve"/>
      <point x="940" y="1010" type="line"/>
      <point x="852" y="1049"/>
      <point x="752" y="1070"/>
      <point x="644" y="1070" type="curve" smooth="yes"/>
      <point x="308" y="1070"/>
      <point x="50" y="832"/>
      <point x="50" y="520" type="curve" smooth="yes"/>
      <point x="50" y="37"/>
      <point x="681" y="50"/>
      <point x="681" y="-204" type="curve" smooth="yes"/>
      <point x="681" y="-254"/>
      <point x="651" y="-327"/>
      <point x="592" y="-420" type="curve"/>
    </contour>
  </outline>
</glyph>
<glyph name="upsilon" format="2">
  <advance width="1275"/>
  <unicode hex="03C5"/>
  <anchor x="609" y="1040" name="top"/>
  <outline>
    <contour>
      <point x="641" y="-30" type="curve" smooth="yes"/>
      <point x="994" y="-28"/>
      <point x="1193" y="161"/>
      <point x="1193" y="526" type="curve" smooth="yes"/>
      <point x="1193" y="701"/>
      <point x="1155" y="898"/>
      <point x="1094" y="1040" type="curve"/>
      <point x="696" y="1040" type="line"/>
      <point x="755" y="925"/>
      <point x="799" y="718"/>
      <point x="799" y="555" type="curve" smooth="yes"/>
      <point x="799" y="399"/>
      <point x="743" y="310"/>
      <point x="643" y="310" type="curve" smooth="yes"/>
      <point x="553" y="310"/>
      <point x="505" y="370"/>
      <point x="505" y="474" type="curve" smooth="yes"/>
      <point x="505" y="1100" type="line"/>
      <point x="105" y="914" type="line"/>
      <point x="105" y="468" type="line" smooth="yes"/>
      <point x="105" y="182"/>
      <point x="247" y="-30"/>
    </contour>
  </outline>
</glyph>
<glyph name="chi" format="2">
  <advance width="1264"/>
  <unicode hex="03C7"/>
  <outline>
    <contour>
      <point x="39" y="-420" type="line"/>
      <point x="491" y="-420" type="line"/>
      <point x="727" y="154" type="line"/>
      <point x="591" y="154" type="line"/>
      <point x="827" y="-420" type="line"/>
      <point x="1287" y="-420" type="line"/>
      <point x="845" y="474" type="line"/>
      <point x="849" y="150" type="line"/>
      <point x="1267" y="1040" type="line"/>
      <point x="821" y="1040" type="line"/>
      <point x="591" y="492" type="line"/>
      <point x="731" y="492" type="line"/>
      <point x="567" y="880" type="line" smooth="yes"/>
      <point x="490" y="1062"/>
      <point x="295" y="1116"/>
      <point x="41" y="1050" type="curve"/>
      <point x="41" y="694" type="line"/>
      <point x="175" y="722"/>
      <point x="220" y="700"/>
      <point x="271" y="594" type="curve" smooth="yes"/>
      <point x="489" y="144" type="line"/>
      <point x="493" y="466" type="line"/>
    </contour>
  </outline>
</glyph>
<glyph name="psi" format="2">
  <advance width="1713"/>
  <unicode hex="03C8"/>
  <outline>
    <contour>
      <point x="654" y="-420" type="line"/>
      <point x="1054" y="-420" type="line"/>
      <point x="1054" y="-30" type="line"/>
      <point x="1421" y="-28"/>
      <point x="1628" y="161"/>
      <point x="1628" y="526" type="curve" smooth="yes"/>
      <point x="1628" y="701"/>
      <point x="1590" y="898"/>
      <point x="1529" y="1040" type="curve"/>
      <point x="1131" y="1040" type="line"/>
      <point x="1190" y="925"/>
      <point x="1234" y="718"/>
      <point x="1234" y="555" type="curve" smooth="yes"/>
      <point x="1234" y="399"/>
      <point x="1166" y="310"/>
      <point x="1046" y="310" type="curve"/>
      <point x="1046" y="1280" type="line"/>
      <point x="662" y="1280" type="line"/>
      <point x="662" y="310" type="line"/>
      <point x="558" y="310"/>
      <point x="494" y="358"/>
      <point x="494" y="550" type="curve" smooth="yes"/>
      <point x="494" y="1100" type="line"/>
      <point x="108" y="914" type="line"/>
      <point x="108" y="544" type="line" smooth="yes"/>
      <point x="108" y="166"/>
      <point x="252" y="-30"/>
      <point x="654" y="-30" type="curve"/>
    </contour>
  </outline>
</glyph>
<glyph name="omega" format="2">
  <advance width="1712"/>
  <unicode hex="03C9"/>
  <anchor x="856" y="0" name="bottom"/>
  <anchor x="856" y="1040" name="top"/>
  <outline>
    <contour>
      <point x="530" y="-30" type="curve" smooth="yes"/>
      <point x="656" y="-30"/>
      <point x="773" y="30"/>
      <point x="856" y="136" type="curve"/>
      <point x="939" y="30"/>
      <point x="1048" y="-30"/>
      <point x="1182" y="-30" type="curve" smooth="yes"/>
      <point x="1469" y="-30"/>
      <point x="1630" y="161"/>
      <point x="1630" y="526" type="curve" smooth="yes"/>
      <point x="1630" y="701"/>
      <point x="1592" y="898"/>
      <point x="1531" y="1040" type="curve"/>
      <point x="1133" y="1040" type="line"/>
      <point x="1192" y="925"/>
      <point x="1236" y="718"/>
      <point x="1236" y="555" type="curve" smooth="yes"/>
      <point x="1236" y="412"/>
      <point x="1196" y="330"/>
      <point x="1126" y="330" type="curve" smooth="yes"/>
      <point x="1058" y="330"/>
      <point x="1030" y="366"/>
      <point x="1030" y="500" type="curve" smooth="yes"/>
      <point x="1030" y="820" type="line"/>
      <point x="682" y="820" type="line"/>
      <point x="682" y="500" type="line" smooth="yes"/>
      <point x="682" y="366"/>
      <point x="654" y="330"/>
      <point x="586" y="330" type="curve" smooth="yes"/>
      <point x="516" y="330"/>
      <point x="476" y="412"/>
      <point x="476" y="555" type="curve" smooth="yes"/>
      <point x="476" y="718"/>
      <point x="520" y="925"/>
      <point x="579" y="1040" type="curve"/>
      <point x="181" y="1040" type="line"/>
      <point x="120" y="898"/>
      <point x="82" y="701"/>
      <point x="82" y="526" type="curve" smooth="yes"/>
      <point x="82" y="161"/>
      <point x="243" y="-30"/>
    </contour>
  </outline>
</glyph>
<glyph name="KaiSymbol" format="2">
  <advance width="1516"/>
  <unicode hex="03CF"/>
  <outline>
    <contour>
      <point x="779" y="-420" type="line"/>
      <point x="1259" y="-420" type="line"/>
      <point x="1529" y="0" type="line"/>
      <point x="947" y="750" type="line"/>
      <point x="1469" y="1400" type="line"/>
      <point x="963" y="1400" type="line"/>
      <point x="557" y="882" type="line"/>
      <point x="557" y="1400" type="line"/>
      <point x="153" y="1400" type="line"/>
      <point x="153" y="0" type="line"/>
      <point x="557" y="0" type="line"/>
      <point x="557" y="312" type="line"/>
      <point x="681" y="446" type="line"/>
      <point x="1033" y="-32" type="line"/>
    </contour>
  </outline>
</glyph>
<glyph name="Dje-cy" format="2">
  <advance width="1676"/>
  <unicode hex="0402"/>
  <outline>
    <contour>
      <point x="388" y="0" type="line"/>
      <point x="794" y="0" type="line"/>
      <point x="794" y="1040" type="line"/>
      <point x="1350" y="1040" type="line"/>
      <point x="1350" y="1400" type="line"/>
      <point x="68" y="1400" type="line"/>
      <point x="-10" y="1040" type="line"/>
      <point x="388" y="1040" type="line"/>
    </contour>
    <contour>
      <point x="1208" y="-334" type="line"/>
      <point x="1490" y="-188"/>
      <point x="1626" y="88"/>
      <point x="1626" y="350" type="curve" smooth="yes"/>
      <point x="1626" y="654"/>
      <point x="1414" y="900"/>
      <point x="1026" y="900" type="curve" smooth="yes"/>
      <point x="928" y="900"/>
      <point x="826" y="888"/>
      <point x="720" y="856" type="curve"/>
      <point x="724" y="532" type="line"/>
      <point x="798" y="556"/>
      <point x="856" y="568"/>
      <point x="936" y="568" type="curve" smooth="yes"/>
      <point x="1106" y="568"/>
      <point x="1218" y="454"/>
      <point x="1218" y="318" type="curve" smooth="yes"/>
      <point x="1218" y="184"/>
      <point x="1150" y="52"/>
      <point x="1008" y="-32" type="curve"/>
    </contour>
  </outline>
</glyph>
<glyph name="Lje-cy" format="2">
  <advance width="2158"/>
  <unicode hex="0409"/>
  <outline>
    <contour>
      <point x="61" y="-20" type="line"/>
      <point x="391" y="-68"/>
      <point x="663" y="62"/>
      <point x="663" y="420" type="curve" smooth="yes"/>
      <point x="663" y="1032" type="line"/>
      <point x="965" y="1032" type="line"/>
      <point x="1369" y="1400" type="line"/>
      <point x="283" y="1400" type="line"/>
      <point x="283" y="504" type="line" smooth="yes"/>
      <point x="283" y="340"/>
      <point x="165" y="304"/>
      <point x="61" y="312" type="curve"/>
    </contour>
    <contour>
      <point x="1369" y="294" type="line"/>
      <point x="1369" y="564" type="line"/>
      <point x="1539" y="564" type="line" smooth="yes"/>
      <point x="1643" y="564"/>
      <point x="1717" y="532"/>
      <point x="1717" y="428" type="curve" smooth="yes"/>
      <point x="1717" y="328"/>
      <point x="1649" y="294"/>
      <point x="1537" y="294" type="curve" smooth="yes"/>
    </contour>
    <contour>
      <point x="965" y="0" type="line"/>
      <point x="1553" y="0" type="line" smooth="yes"/>
      <point x="1913" y="0"/>
      <point x="2121" y="168"/>
      <point x="2121" y="464" type="curve" smooth="yes"/>
      <point x="2121" y="744"/>
      <point x="1883" y="908"/>
      <point x="1563" y="908" type="curve" smooth="yes"/>
      <point x="1369" y="908" type="line"/>
      <point x="1369" y="1400" type="line"/>
      <point x="965" y="1400" type="line"/>
    </contour>
  </outline>
</glyph>
<glyph name="Nje-cy" format="2">
  <advance width="2178"/>
  <unicode hex="040A"/>
  <outline>
    <contour>
      <point x="985" y="0" type="line"/>
      <point x="1573" y="0" type="line" smooth="yes"/>
      <point x="1933" y="0"/>
      <point x="2141" y="168"/>
      <point x="2141" y="464" type="curve" smooth="yes"/>
      <point x="2141" y="744"/>
      <point x="1903" y="908"/>
      <point x="1583" y="908" type="curve" smooth="yes"/>
      <point x="469" y="908" type="line"/>
      <point x="469" y="564" type="line"/>
      <point x="1559" y="564" type="line" smooth="yes"/>
      <point x="1663" y="564"/>
      <point x="1737" y="532"/>
      <point x="1737" y="428" type="curve" smooth="yes"/>
      <point x="1737" y="328"/>
      <point x="1669" y="294"/>
      <point x="1557" y="294" type="curve" smooth="yes"/>
      <point x="1389" y="294" type="line"/>
      <point x="1389" y="1400" type="line"/>
      <point x="985" y="1400" type="line"/>
    </contour>
    <contour>
      <point x="153" y="0" type="line"/>
      <point x="557" y="0" type="line"/>
      <point x="557" y="1400" type="line"/>
      <point x="153" y="1400" type="line"/>
    </contour>
  </outline>
</glyph>
<glyph name="Tshe-cy" format="2">
  <advance width="1708"/>
  <unicode hex="040B"/>
  <outline>
    <contour>
      <point x="-10" y="1040" type="line"/>
      <point x="1350" y="1040" type="line"/>
      <point x="1350" y="1400" type="line"/>
      <point x="68" y="1400" type="line"/>
    </contour>
    <contour>
      <point x="392" y="0" type="line"/>
      <point x="796" y="0" type="line"/>
      <point x="796" y="522" type="line"/>
      <point x="862" y="538"/>
      <point x="926" y="548"/>
      <point x="1012" y="548" type="curve" smooth="yes"/>
      <point x="1152" y="548"/>
      <point x="1228" y="482"/>
      <point x="1228" y="298" type="curve" smooth="yes"/>
      <point x="1228" y="0" type="line"/>
      <point x="1632" y="0" type="line"/>
      <point x="1632" y="352" type="line" smooth="yes"/>
      <point x="1632" y="744"/>
      <point x="1416" y="900"/>
      <point x="1096" y="900" type="curve" smooth="yes"/>
      <point x="992" y="900"/>
      <point x="900" y="882"/>
      <point x="796" y="852" type="curve"/>
      <point x="796" y="1400" type="line"/>
      <point x="392" y="1400" type="line"/>
    </contour>
  </outline>
</glyph>
<glyph name="Be-cy" format="2">
  <advance width="1348"/>
  <unicode hex="0411"/>
  <outline>
    <contour>
      <point x="153" y="0" type="line"/>
      <point x="743" y="0" type="line" smooth="yes"/>
      <point x="1075" y="0"/>
      <point x="1281" y="160"/>
      <point x="1281" y="432" type="curve" smooth="yes"/>
      <point x="1281" y="718"/>
      <point x="1075" y="864"/>
      <point x="743" y="864" type="curve" smooth="yes"/>
      <point x="557" y="864" type="line"/>
      <point x="557" y="1052" type="line"/>
      <point x="1153" y="1052" type="line"/>
      <point x="1153" y="1400" type="line"/>
      <point x="153" y="1400" type="line"/>
    </contour>
    <contour>
      <point x="557" y="290" type="line"/>
      <point x="557" y="574" type="line"/>
      <point x="709" y="574" type="line" smooth="yes"/>
      <point x="805" y="574"/>
      <point x="859" y="520"/>
      <point x="859" y="432" type="curve" smooth="yes"/>
      <point x="859" y="340"/>
      <point x="801" y="290"/>
      <point x="689" y="290" type="curve" smooth="yes"/>
    </contour>
  </outline>
</glyph>
<glyph name="De-cy" format="2">
  <advance width="1713"/>
  <unicode hex="0414"/>
  <outline>
    <contour>
      <point x="1033" y="0" type="line"/>
      <point x="1437" y="0" type="line"/>
      <point x="1437" y="1400" type="line"/>
      <point x="287" y="1400" type="line"/>
      <point x="287" y="514" type="line" smooth="yes"/>
      <point x="287" y="352"/>
      <point x="169" y="316"/>
      <point x="65" y="324" type="curve"/>
      <point x="65" y="40" type="line"/>
      <point x="395" y="-8"/>
      <point x="667" y="142"/>
      <point x="667" y="560" type="curve" smooth="yes"/>
      <point x="667" y="1032" type="line"/>
      <point x="1033" y="1032" type="line"/>
    </contour>
    <contour>
      <point x="65" y="-440" type="line"/>
      <point x="449" y="-260" type="line"/>
      <point x="449" y="0" type="line"/>
      <point x="1281" y="0" type="line"/>
      <point x="1281" y="-440" type="line"/>
      <point x="1665" y="-260" type="line"/>
      <point x="1665" y="368" type="line"/>
      <point x="393" y="368" type="line"/>
      <point x="325" y="284" type="line"/>
      <point x="65" y="324" type="line"/>
    </contour>
  </outline>
</glyph>
<glyph name="Zhe-cy" format="2">
  <advance width="2128"/>
  <unicode hex="0416"/>
  <anchor x="1997" y="0" name="descender"/>
  <anchor x="1063" y="1400" name="top"/>
  <outline>
    <contour>
      <point x="1675" y="0" type="line"/>
      <point x="2141" y="0" type="line"/>
      <point x="1617" y="720" type="line"/>
      <point x="2087" y="1400" type="line"/>
      <point x="1631" y="1400" type="line"/>
      <point x="1173" y="720" type="line"/>
    </contour>
    <contour>
      <point x="-13" y="0" type="line"/>
      <point x="435" y="0" type="line"/>
      <point x="951" y="714" type="line"/>
      <point x="517" y="1400" type="line"/>
      <point x="47" y="1400" type="line"/>
      <point x="507" y="696" type="line"/>
    </contour>
    <contour>
      <point x="861" y="0" type="line"/>
      <point x="1265" y="0" type="line"/>
      <point x="1265" y="560" type="line"/>
      <point x="1507" y="560" type="line"/>
      <point x="1507" y="892" type="line"/>
      <point x="1265" y="892" type="line"/>
      <point x="1265" y="1400" type="line"/>
      <point x="861" y="1400" type="line"/>
      <point x="861" y="892" type="line"/>
      <point x="621" y="892" type="line"/>
      <point x="621" y="560" type="line"/>
      <point x="861" y="560" type="line"/>
    </contour>
  </outline>
</glyph>
<glyph name="Ze-cy" format="2">
  <advance width="1207"/>
  <unicode hex="0417"/>
  <guideline x="89" y="357" angle="77.9052"/>
  <guideline x="89" y="357" angle="90"/>
  <anchor x="532" y="0" name="bottom"/>
  <anchor x="542" y="1400" name="top"/>
  <outline>
    <contour>
      <point x="536" y="-30" type="curve" smooth="yes"/>
      <point x="900" y="-30"/>
      <point x="1140" y="158"/>
      <point x="1140" y="440" type="curve" smooth="yes"/>
      <point x="1140" y="600"/>
      <point x="1056" y="714"/>
      <point x="900" y="772" type="curve"/>
      <point x="1012" y="836"/>
      <point x="1080" y="944"/>
      <point x="1080" y="1060" type="curve" smooth="yes"/>
      <point x="1080" y="1290"/>
      <point x="878" y="1430"/>
      <point x="542" y="1430" type="curve" smooth="yes"/>
      <point x="388" y="1430"/>
      <point x="240" y="1396"/>
      <point x="120" y="1336" type="curve"/>
      <point x="120" y="952" type="line"/>
      <point x="204" y="1020"/>
      <point x="350" y="1066"/>
      <point x="482" y="1066" type="curve" smooth="yes"/>
      <point x="620" y="1066"/>
      <point x="678" y="1034"/>
      <point x="678" y="968" type="curve" smooth="yes"/>
      <point x="678" y="902"/>
      <point x="616" y="864"/>
      <point x="500" y="864" type="curve" smooth="yes"/>
      <point x="272" y="864" type="line"/>
      <point x="208" y="562" type="line"/>
      <point x="530" y="562" type="line" smooth="yes"/>
      <point x="656" y="562"/>
      <point x="718" y="525"/>
      <point x="718" y="450" type="curve" smooth="yes"/>
      <point x="718" y="368"/>
      <point x="628" y="316"/>
      <point x="486" y="316" type="curve" smooth="yes"/>
      <point x="334" y="316"/>
      <point x="180" y="360"/>
      <point x="74" y="434" type="curve"/>
      <point x="74" y="58" type="line"/>
      <point x="206" y="-2"/>
      <point x="358" y="-30"/>
    </contour>
  </outline>
</glyph>
<glyph name="Ii-cy" format="2">
  <advance width="1590"/>
  <unicode hex="0418"/>
  <anchor x="795" y="0" name="bottom"/>
  <anchor x="795" y="1400" name="top"/>
  <outline>
    <contour>
      <point x="153" y="0" type="line"/>
      <point x="557" y="0" type="line"/>
      <point x="1037" y="782" type="line"/>
      <point x="1037" y="0" type="line"/>
      <point x="1437" y="0" type="line"/>
      <point x="1437" y="1400" type="line"/>
      <point x="1031" y="1400" type="line"/>
      <point x="553" y="630" type="line"/>
      <point x="553" y="1400" type="line"/>
      <point x="153" y="1400" type="line"/>
    </contour>
  </outline>
</glyph>
<glyph name="Ka-cy" format="2">
  <advance width="1516"/>
  <unicode hex="041A"/>
  <anchor x="1389" y="0" name="descender"/>
  <anchor x="761" y="1400" name="top"/>
  <outline>
    <contour>
      <point x="1011" y="0" type="line"/>
      <point x="1529" y="0" type="line"/>
      <point x="947" y="714" type="line"/>
      <point x="1469" y="1400" type="line"/>
      <point x="963" y="1400" type="line"/>
      <point x="455" y="714" type="line"/>
    </contour>
    <contour>
      <point x="153" y="0" type="line"/>
      <point x="557" y="0" type="line"/>
      <point x="557" y="538" type="line"/>
      <point x="825" y="538" type="line"/>
      <point x="825" y="906" type="line"/>
      <point x="557" y="906" type="line"/>
      <point x="557" y="1400" type="line"/>
      <point x="153" y="1400" type="line"/>
    </contour>
  </outline>
</glyph>
<glyph name="Che-cy" format="2">
  <advance width="1466"/>
  <unicode hex="0427"/>
  <anchor x="693" y="636" name="center"/>
  <anchor x="1313" y="0" name="descender"/>
  <anchor x="909" y="0" name="descender_alt"/>
  <anchor x="693" y="1400" name="top"/>
  <outline>
    <contour>
      <point x="909" y="0" type="line"/>
      <point x="1313" y="0" type="line"/>
      <point x="1313" y="1400" type="line"/>
      <point x="909" y="1400" type="line"/>
      <point x="909" y="838" type="line"/>
      <point x="843" y="822"/>
      <point x="779" y="812"/>
      <point x="693" y="812" type="curve" smooth="yes"/>
      <point x="553" y="812"/>
      <point x="477" y="878"/>
      <point x="477" y="1062" type="curve" smooth="yes"/>
      <point x="477" y="1400" type="line"/>
      <point x="73" y="1400" type="line"/>
      <point x="73" y="1008" type="line" smooth="yes"/>
      <point x="73" y="616"/>
      <point x="289" y="460"/>
      <point x="609" y="460" type="curve" smooth="yes"/>
      <point x="713" y="460"/>
      <point x="805" y="478"/>
      <point x="909" y="508" type="curve"/>
    </contour>
  </outline>
</glyph>
<glyph name="ge-cy" format="2">
  <advance width="896"/>
  <unicode hex="0433"/>
  <anchor x="345" y="462" name="bar"/>
  <anchor x="525" y="0" name="descender"/>
  <anchor x="491" y="1040" name="top"/>
  <outline>
    <contour>
      <point x="125" y="0" type="line"/>
      <point x="525" y="0" type="line"/>
      <point x="525" y="728" type="line"/>
      <point x="859" y="728" type="line"/>
      <point x="859" y="1040" type="line"/>
      <point x="125" y="1040" type="line"/>
    </contour>
  </outline>
</glyph>
<glyph name="de-cy" format="2">
  <advance width="1468"/>
  <unicode hex="0434"/>
  <outline>
    <contour>
      <point x="838" y="0" type="line"/>
      <point x="1238" y="0" type="line"/>
      <point x="1238" y="1040" type="line"/>
      <point x="246" y="1040" type="line"/>
      <point x="246" y="444" type="line" smooth="yes"/>
      <point x="246" y="316"/>
      <point x="150" y="288"/>
      <point x="64" y="292" type="curve"/>
      <point x="64" y="20" type="line"/>
      <point x="362" y="-26"/>
      <point x="606" y="86"/>
      <point x="606" y="400" type="curve" smooth="yes"/>
      <point x="606" y="728" type="line"/>
      <point x="838" y="728" type="line"/>
    </contour>
    <contour>
      <point x="64" y="-384" type="line"/>
      <point x="428" y="-216" type="line"/>
      <point x="428" y="0" type="line"/>
      <point x="1080" y="0" type="line"/>
      <point x="1080" y="-384" type="line"/>
      <point x="1444" y="-216" type="line"/>
      <point x="1444" y="312" type="line"/>
      <point x="322" y="312" type="line"/>
      <point x="258" y="286" type="line"/>
      <point x="64" y="292" type="line"/>
    </contour>
  </outline>
</glyph>
<glyph name="ze-cy" format="2">
  <advance width="1036"/>
  <unicode hex="0437"/>
  <anchor x="481" y="0" name="bottom"/>
  <anchor x="461" y="1040" name="top"/>
  <outline>
    <contour>
      <point x="455" y="-30" type="curve" smooth="yes"/>
      <point x="779" y="-30"/>
      <point x="969" y="118"/>
      <point x="969" y="326" type="curve" smooth="yes"/>
      <point x="969" y="456"/>
      <point x="899" y="534"/>
      <point x="765" y="576" type="curve"/>
      <point x="869" y="606"/>
      <point x="923" y="696"/>
      <point x="923" y="784" type="curve" smooth="yes"/>
      <point x="923" y="968"/>
      <point x="755" y="1076"/>
      <point x="455" y="1076" type="curve" smooth="yes"/>
      <point x="335" y="1076"/>
      <point x="205" y="1052"/>
      <point x="91" y="994" type="curve"/>
      <point x="91" y="684" type="line"/>
      <point x="171" y="752"/>
      <point x="291" y="784"/>
      <point x="417" y="784" type="curve" smooth="yes"/>
      <point x="515" y="784"/>
      <point x="573" y="766"/>
      <point x="573" y="722" type="curve" smooth="yes"/>
      <point x="573" y="680"/>
      <point x="539" y="662"/>
      <point x="433" y="662" type="curve" smooth="yes"/>
      <point x="283" y="662" type="line"/>
      <point x="227" y="394" type="line"/>
      <point x="445" y="394" type="line" smooth="yes"/>
      <point x="557" y="394"/>
      <point x="607" y="384"/>
      <point x="607" y="334" type="curve" smooth="yes"/>
      <point x="607" y="277"/>
      <point x="547" y="252"/>
      <point x="437" y="252" type="curve" smooth="yes"/>
      <point x="299" y="252"/>
      <point x="169" y="286"/>
      <point x="87" y="354" type="curve"/>
      <point x="87" y="42" type="line"/>
      <point x="195" y="-8"/>
      <point x="325" y="-30"/>
    </contour>
  </outline>
</glyph>
<glyph name="ii-cy" format="2">
  <advance width="1366"/>
  <unicode hex="0438"/>
  <anchor x="683" y="0" name="bottom"/>
  <anchor x="683" y="1040" name="top"/>
  <outline>
    <contour>
      <point x="125" y="0" type="line"/>
      <point x="487" y="0" type="line"/>
      <point x="861" y="496" type="line"/>
      <point x="861" y="0" type="line"/>
      <point x="1241" y="0" type="line"/>
      <point x="1241" y="1040" type="line"/>
      <point x="879" y="1040" type="line"/>
      <point x="505" y="552" type="line"/>
      <point x="505" y="1100" type="line"/>
      <point x="125" y="924" type="line"/>
    </contour>
  </outline>
</glyph>
<glyph name="el-cy" format="2">
  <advance width="1340"/>
  <unicode hex="043B"/>
  <guideline x="2" y="156" angle="0"/>
  <guideline x="107" y="148" angle="0"/>
  <outline>
    <contour>
      <point x="61" y="-20" type="line"/>
      <point x="359" y="-66"/>
      <point x="603" y="46"/>
      <point x="603" y="360" type="curve" smooth="yes"/>
      <point x="603" y="728" type="line"/>
      <point x="815" y="728" type="line"/>
      <point x="815" y="0" type="line"/>
      <point x="1215" y="0" type="line"/>
      <point x="1215" y="1040" type="line"/>
      <point x="243" y="1040" type="line"/>
      <point x="243" y="444" type="line" smooth="yes"/>
      <point x="243" y="312"/>
      <point x="147" y="284"/>
      <point x="61" y="292" type="curve"/>
    </contour>
  </outline>
</glyph>
<glyph name="em-cy" format="2">
  <advance width="1528"/>
  <unicode hex="043C"/>
  <outline>
    <contour>
      <point x="125" y="0" type="line"/>
      <point x="451" y="0" type="line"/>
      <point x="443" y="614" type="line"/>
      <point x="365" y="584" type="line"/>
      <point x="651" y="156" type="line"/>
      <point x="877" y="156" type="line"/>
      <point x="1141" y="584" type="line"/>
      <point x="1063" y="614" type="line"/>
      <point x="1057" y="0" type="line"/>
      <point x="1403" y="0" type="line"/>
      <point x="1403" y="1040" type="line"/>
      <point x="1057" y="1040" type="line"/>
      <point x="693" y="416" type="line"/>
      <point x="863" y="418" type="line"/>
      <point x="469" y="1040" type="line"/>
      <point x="463" y="1040" type="line"/>
      <point x="125" y="1040" type="line"/>
    </contour>
  </outline>
</glyph>
<glyph name="en-cy" format="2">
  <advance width="1370"/>
  <unicode hex="043D"/>
  <anchor x="1245" y="0" name="descender"/>
  <anchor x="685" y="1040" name="top"/>
  <outline>
    <contour>
      <point x="125" y="0" type="line"/>
      <point x="525" y="0" type="line"/>
      <point x="525" y="370" type="line"/>
      <point x="845" y="370" type="line"/>
      <point x="845" y="0" type="line"/>
      <point x="1245" y="0" type="line"/>
      <point x="1245" y="1100" type="line"/>
      <point x="845" y="914" type="line"/>
      <point x="845" y="682" type="line"/>
      <point x="525" y="682" type="line"/>
      <point x="525" y="1100" type="line"/>
      <point x="125" y="914" type="line"/>
    </contour>
  </outline>
</glyph>
<glyph name="ef-cy" format="2">
  <advance width="1664"/>
  <unicode hex="0444"/>
  <outline>
    <contour>
      <point x="630" y="-420" type="line"/>
      <point x="1028" y="-420" type="line"/>
      <point x="1030" y="1480" type="line"/>
      <point x="630" y="1294" type="line"/>
    </contour>
    <contour>
      <point x="824" y="-26" type="curve" smooth="yes"/>
      <point x="1332" y="-26"/>
      <point x="1614" y="174"/>
      <point x="1614" y="520" type="curve" smooth="yes"/>
      <point x="1614" y="866"/>
      <point x="1352" y="1066"/>
      <point x="838" y="1066" type="curve" smooth="yes"/>
      <point x="324" y="1066"/>
      <point x="50" y="862"/>
      <point x="50" y="520" type="curve" smooth="yes"/>
      <point x="50" y="178"/>
      <point x="316" y="-26"/>
    </contour>
    <contour>
      <point x="832" y="310" type="curve" smooth="yes"/>
      <point x="524" y="310"/>
      <point x="436" y="380"/>
      <point x="436" y="520" type="curve" smooth="yes"/>
      <point x="436" y="660"/>
      <point x="522" y="730"/>
      <point x="830" y="730" type="curve" smooth="yes"/>
      <point x="1138" y="730"/>
      <point x="1226" y="660"/>
      <point x="1226" y="520" type="curve" smooth="yes"/>
      <point x="1226" y="380"/>
      <point x="1140" y="310"/>
    </contour>
  </outline>
</glyph>
<glyph name="che-cy" format="2">
  <advance width="1232"/>
  <unicode hex="0447"/>
  <anchor x="570" y="486" name="center"/>
  <anchor x="1104" y="0" name="descender"/>
  <anchor x="704" y="0" name="descender_alt"/>
  <anchor x="570" y="1040" name="top"/>
  <outline>
    <contour>
      <point x="704" y="0" type="line"/>
      <point x="1104" y="0" type="line"/>
      <point x="1104" y="1100" type="line"/>
      <point x="704" y="914" type="line"/>
      <point x="704" y="638" type="line"/>
      <point x="666" y="632"/>
      <point x="630" y="626"/>
      <point x="570" y="626" type="curve" smooth="yes"/>
      <point x="474" y="626"/>
      <point x="438" y="680"/>
      <point x="438" y="782" type="curve" smooth="yes"/>
      <point x="438" y="1100" type="line"/>
      <point x="38" y="914" type="line"/>
      <point x="38" y="730" type="line" smooth="yes"/>
      <point x="38" y="422"/>
      <point x="228" y="302"/>
      <point x="480" y="302" type="curve" smooth="yes"/>
      <point x="550" y="302"/>
      <point x="620" y="314"/>
      <point x="704" y="336" type="curve"/>
    </contour>
  </outline>
</glyph>
<glyph name="hardsign-cy" format="2">
  <advance width="1396"/>
  <unicode hex="044A"/>
  <anchor x="509" y="1040" name="top"/>
  <outline>
    <contour>
      <point x="309" y="0" type="line"/>
      <point x="859" y="0" type="line" smooth="yes"/>
      <point x="1155" y="0"/>
      <point x="1339" y="144"/>
      <point x="1339" y="380" type="curve" smooth="yes"/>
      <point x="1339" y="634"/>
      <point x="1157" y="758"/>
      <point x="859" y="758" type="curve" smooth="yes"/>
      <point x="673" y="758" type="line"/>
      <point x="673" y="490" type="line"/>
      <point x="825" y="490" type="line" smooth="yes"/>
      <point x="889" y="490"/>
      <point x="931" y="444"/>
      <point x="931" y="380" type="curve" smooth="yes"/>
      <point x="931" y="314"/>
      <point x="883" y="272"/>
      <point x="809" y="272" type="curve" smooth="yes"/>
      <point x="709" y="272" type="line"/>
      <point x="709" y="1040" type="line"/>
      <point x="309" y="1040" type="line"/>
    </contour>
    <contour>
      <point x="3" y="690" type="line"/>
      <point x="309" y="690" type="line"/>
      <point x="709" y="1040" type="line"/>
      <point x="83" y="1040" type="line"/>
    </contour>
  </outline>
</glyph>
<glyph name="softsign-cy" format="2">
  <advance width="1218"/>
  <unicode hex="044C"/>
  <outline>
    <contour>
      <point x="128" y="0" type="line"/>
      <point x="678" y="0" type="line" smooth="yes"/>
      <point x="974" y="0"/>
      <point x="1158" y="144"/>
      <point x="1158" y="380" type="curve" smooth="yes"/>
      <point x="1158" y="634"/>
      <point x="976" y="758"/>
      <point x="678" y="758" type="curve" smooth="yes"/>
      <point x="492" y="758" type="line"/>
      <point x="492" y="490" type="line"/>
      <point x="644" y="490" type="line" smooth="yes"/>
      <point x="708" y="490"/>
      <point x="750" y="444"/>
      <point x="750" y="380" type="curve" smooth="yes"/>
      <point x="750" y="314"/>
      <point x="702" y="272"/>
      <point x="628" y="272" type="curve" smooth="yes"/>
      <point x="528" y="272" type="line"/>
      <point x="528" y="1100" type="line"/>
      <point x="128" y="914" type="line"/>
    </contour>
  </outline>
</glyph>
<glyph name="ereversed-cy" format="2">
  <advance width="1060"/>
  <unicode hex="044D"/>
  <anchor x="451" y="0" name="bottom"/>
  <anchor x="451" y="1040" name="top"/>
  <outline>
    <contour>
      <point x="435" y="-30" type="curve" smooth="yes"/>
      <point x="793" y="-30"/>
      <point x="1013" y="194"/>
      <point x="1013" y="524" type="curve" smooth="yes"/>
      <point x="1013" y="854"/>
      <point x="799" y="1070"/>
      <point x="451" y="1070" type="curve" smooth="yes"/>
      <point x="317" y="1070"/>
      <point x="193" y="1040"/>
      <point x="91" y="988" type="curve"/>
      <point x="91" y="678" type="line"/>
      <point x="167" y="736"/>
      <point x="275" y="778"/>
      <point x="399" y="778" type="curve" smooth="yes"/>
      <point x="579" y="778"/>
      <point x="659" y="712"/>
      <point x="659" y="524" type="curve" smooth="yes"/>
      <point x="659" y="324"/>
      <point x="583" y="262"/>
      <point x="397" y="262" type="curve" smooth="yes"/>
      <point x="279" y="262"/>
      <point x="155" y="296"/>
      <point x="67" y="364" type="curve"/>
      <point x="67" y="42" type="line"/>
      <point x="171" y="-4"/>
      <point x="301" y="-30"/>
    </contour>
    <contour>
      <point x="227" y="396" type="line"/>
      <point x="783" y="396" type="line"/>
      <point x="783" y="664" type="line"/>
      <point x="283" y="664" type="line"/>
    </contour>
  </outline>
</glyph>
<glyph name="iu-cy" format="2">
  <advance width="1880"/>
  <unicode hex="044E"/>
  <anchor x="979" y="1040" name="top"/>
  <outline>
    <contour>
      <point x="125" y="0" type="line"/>
      <point x="525" y="0" type="line"/>
      <point x="525" y="370" type="line"/>
      <point x="845" y="370" type="line"/>
      <point x="845" y="682" type="line"/>
      <point x="525" y="682" type="line"/>
      <point x="525" y="1100" type="line"/>
      <point x="125" y="914" type="line"/>
    </contour>
    <contour>
      <point x="1245" y="-30" type="curve" smooth="yes"/>
      <point x="1593" y="-30"/>
      <point x="1833" y="232"/>
      <point x="1833" y="520" type="curve" smooth="yes"/>
      <point x="1833" y="820"/>
      <point x="1593" y="1070"/>
      <point x="1245" y="1070" type="curve" smooth="yes"/>
      <point x="897" y="1070"/>
      <point x="657" y="808"/>
      <point x="657" y="520" type="curve" smooth="yes"/>
      <point x="657" y="220"/>
      <point x="897" y="-30"/>
    </contour>
    <contour>
      <point x="1245" y="310" type="curve" smooth="yes"/>
      <point x="1133" y="310"/>
      <point x="1045" y="390"/>
      <point x="1045" y="520" type="curve" smooth="yes"/>
      <point x="1045" y="650"/>
      <point x="1131" y="730"/>
      <point x="1245" y="730" type="curve" smooth="yes"/>
      <point x="1359" y="730"/>
      <point x="1445" y="650"/>
      <point x="1445" y="520" type="curve" smooth="yes"/>
      <point x="1445" y="390"/>
      <point x="1357" y="310"/>
    </contour>
  </outline>
</glyph>
<glyph name="e-cy" format="2">
  <advance width="1056"/>
  <unicode hex="0454"/>
  <outline>
    <contour>
      <point x="641" y="-30" type="curve" smooth="yes"/>
      <point x="759" y="-30"/>
      <point x="883" y="0"/>
      <point x="989" y="54" type="curve"/>
      <point x="989" y="362" type="line"/>
      <point x="887" y="292"/>
      <point x="779" y="262"/>
      <point x="663" y="262" type="curve" smooth="yes"/>
      <point x="479" y="262"/>
      <point x="401" y="348"/>
      <point x="401" y="520" type="curve" smooth="yes"/>
      <point x="401" y="694"/>
      <point x="477" y="778"/>
      <point x="661" y="778" type="curve" smooth="yes"/>
      <point x="763" y="778"/>
      <point x="869" y="748"/>
      <point x="959" y="674" type="curve"/>
      <point x="959" y="1008" type="line"/>
      <point x="867" y="1048"/>
      <point x="765" y="1070"/>
      <point x="653" y="1070" type="curve" smooth="yes"/>
      <point x="291" y="1070"/>
      <point x="47" y="832"/>
      <point x="47" y="520" type="curve" smooth="yes"/>
      <point x="47" y="206"/>
      <point x="283" y="-30"/>
    </contour>
    <contour>
      <point x="277" y="396" type="line"/>
      <point x="817" y="396" type="line"/>
      <point x="817" y="664" type="line"/>
      <point x="277" y="664" type="line"/>
    </contour>
  </outline>
</glyph>
<glyph name="Yat-cy" format="2">
  <advance width="1546"/>
  <unicode hex="0462"/>
  <outline>
    <contour>
      <point x="353" y="0" type="line"/>
      <point x="941" y="0" type="line" smooth="yes"/>
      <point x="1301" y="0"/>
      <point x="1509" y="168"/>
      <point x="1509" y="464" type="curve" smooth="yes"/>
      <point x="1509" y="731"/>
      <point x="1271" y="888"/>
      <point x="951" y="888" type="curve" smooth="yes"/>
      <point x="475" y="888" type="line"/>
      <point x="475" y="564" type="line"/>
      <point x="927" y="564" type="line" smooth="yes"/>
      <point x="1031" y="564"/>
      <point x="1105" y="532"/>
      <point x="1105" y="428" type="curve" smooth="yes"/>
      <point x="1105" y="328"/>
      <point x="1037" y="294"/>
      <point x="925" y="294" type="curve" smooth="yes"/>
      <point x="757" y="294" type="line"/>
      <point x="757" y="1440" type="line"/>
      <point x="353" y="1440" type="line"/>
    </contour>
    <contour>
      <point x="20" y="996" type="line"/>
      <point x="1059" y="996" type="line"/>
      <point x="1059" y="1304" type="line"/>
      <point x="86" y="1304" type="line"/>
    </contour>
  </outline>
</glyph>
<glyph name="yat-cy" format="2">
  <advance width="1375"/>
  <unicode hex="0463"/>
  <outline>
    <contour>
      <point x="298" y="0" type="line"/>
      <point x="848" y="0" type="line" smooth="yes"/>
      <point x="1136" y="0"/>
      <point x="1318" y="134"/>
      <point x="1318" y="354" type="curve" smooth="yes"/>
      <point x="1318" y="570"/>
      <point x="1140" y="674"/>
      <point x="848" y="674" type="curve" smooth="yes"/>
      <point x="666" y="674" type="line"/>
      <point x="666" y="440" type="line"/>
      <point x="814" y="440" type="line" smooth="yes"/>
      <point x="872" y="440"/>
      <point x="910" y="400"/>
      <point x="910" y="354" type="curve" smooth="yes"/>
      <point x="910" y="304"/>
      <point x="866" y="268"/>
      <point x="798" y="268" type="curve" smooth="yes"/>
      <point x="698" y="268" type="line"/>
      <point x="698" y="1480" type="line"/>
      <point x="298" y="1294" type="line"/>
    </contour>
    <contour>
      <point x="3" y="748" type="line"/>
      <point x="960" y="748" type="line"/>
      <point x="960" y="1040" type="line"/>
      <point x="66" y="1040" type="line"/>
    </contour>
  </outline>
</glyph>
<glyph name="Yusbig-cy" format="2">
  <advance width="2134"/>
  <unicode hex="046A"/>
  <guideline x="338" y="867" angle="127.0078"/>
  <guideline x="188" y="1233" angle="257.7639"/>
  <anchor x="2000" y="0" name="descender"/>
  <anchor x="1066" y="1400" name="top"/>
  <outline>
    <contour>
      <point x="-10" y="0" type="line"/>
      <point x="438" y="0" type="line"/>
      <point x="932" y="684" type="line"/>
      <point x="634" y="1092" type="line"/>
      <point x="1506" y="1092" type="line"/>
      <point x="1198" y="692" type="line"/>
      <point x="1678" y="0" type="line"/>
      <point x="2144" y="0" type="line"/>
      <point x="1640" y="692" type="line"/>
      <point x="1938" y="1066" type="line"/>
      <point x="1938" y="1400" type="line"/>
      <point x="188" y="1400" type="line"/>
      <point x="188" y="1066" type="line"/>
      <point x="488" y="668" type="line"/>
    </contour>
    <contour>
      <point x="864" y="0" type="line"/>
      <point x="1268" y="0" type="line"/>
      <point x="1268" y="560" type="line"/>
      <point x="1510" y="560" type="line"/>
      <point x="1510" y="832" type="line"/>
      <point x="624" y="832" type="line"/>
      <point x="624" y="560" type="line"/>
      <point x="864" y="560" type="line"/>
    </contour>
  </outline>
</glyph>
<glyph name="yusbig-cy" format="2">
  <advance width="1796"/>
  <unicode hex="046B"/>
  <guideline x="124" y="910" angle="257.7639"/>
  <anchor x="1665" y="0" name="descender"/>
  <outline>
    <contour>
      <point x="11" y="0" type="line"/>
      <point x="457" y="0" type="line"/>
      <point x="723" y="504" type="line"/>
      <point x="561" y="770" type="line"/>
      <point x="1227" y="770" type="line"/>
      <point x="1059" y="504" type="line"/>
      <point x="1317" y="0" type="line"/>
      <point x="1785" y="0" type="line"/>
      <point x="1485" y="528" type="line"/>
      <point x="1649" y="780" type="line"/>
      <point x="1649" y="1040" type="line"/>
      <point x="127" y="1040" type="line"/>
      <point x="127" y="780" type="line"/>
      <point x="297" y="508" type="line"/>
    </contour>
    <contour>
      <point x="691" y="0" type="line"/>
      <point x="1091" y="0" type="line"/>
      <point x="1091" y="370" type="line"/>
      <point x="1383" y="370" type="line"/>
      <point x="1383" y="602" type="line"/>
      <point x="397" y="602" type="line"/>
      <point x="397" y="370" type="line"/>
      <point x="691" y="370" type="line"/>
    </contour>
  </outline>
</glyph>
<glyph name="Izhitsa-cy" format="2">
  <advance width="1514"/>
  <unicode hex="0474"/>
  <outline>
    <contour>
      <point x="481" y="0" type="line"/>
      <point x="951" y="0" type="line"/>
      <point x="1225" y="798" type="line" smooth="yes"/>
      <point x="1301" y="1020"/>
      <point x="1387" y="1050"/>
      <point x="1551" y="1032" type="curve"/>
      <point x="1551" y="1430" type="line"/>
      <point x="1185" y="1474"/>
      <point x="997" y="1366"/>
      <point x="867" y="962" type="curve" smooth="yes"/>
      <point x="721" y="504" type="line"/>
      <point x="435" y="1400" type="line"/>
      <point x="-21" y="1400" type="line"/>
    </contour>
  </outline>
</glyph>
<glyph name="izhitsa-cy" format="2">
  <advance width="1252"/>
  <unicode hex="0475"/>
  <outline>
    <contour>
      <point x="363" y="0" type="line"/>
      <point x="809" y="0" type="line"/>
      <point x="989" y="492" type="line" smooth="yes"/>
      <point x="1067" y="706"/>
      <point x="1137" y="730"/>
      <point x="1251" y="706" type="curve"/>
      <point x="1251" y="1060" type="line"/>
      <point x="933" y="1124"/>
      <point x="771" y="1054"/>
      <point x="693" y="776" type="curve" smooth="yes"/>
      <point x="601" y="448" type="line"/>
      <point x="435" y="1040" type="line"/>
      <point x="7" y="1040" type="line"/>
    </contour>
  </outline>
</glyph>
<glyph name="Gheupturn-cy" format="2">
  <advance width="1080"/>
  <unicode hex="0490"/>
  <anchor x="437" y="644" name="bar"/>
  <anchor x="557" y="0" name="descender"/>
  <anchor x="603" y="1400" name="top"/>
  <outline>
    <contour>
      <point x="669" y="1032" type="line"/>
      <point x="1053" y="1032" type="line"/>
      <point x="1053" y="1840" type="line"/>
      <point x="669" y="1660" type="line"/>
    </contour>
    <component base="Ge-cy"/>
  </outline>
</glyph>
<glyph name="gheupturn-cy" format="2">
  <advance width="896"/>
  <unicode hex="0491"/>
  <anchor x="345" y="462" name="bar"/>
  <anchor x="525" y="0" name="descender"/>
  <anchor x="491" y="1040" name="top"/>
  <outline>
    <contour>
      <point x="495" y="728" type="line"/>
      <point x="859" y="728" type="line"/>
      <point x="859" y="1424" type="line"/>
      <point x="495" y="1256" type="line"/>
    </contour>
    <component base="ge-cy"/>
  </outline>
</glyph>
<glyph name="ghemiddlehook-cy" format="2">
  <advance width="1163"/>
  <unicode hex="0495"/>
  <anchor x="345" y="462" name="bar"/>
  <anchor x="525" y="0" name="descender"/>
  <anchor x="491" y="1040" name="top"/>
  <outline>
    <contour>
      <point x="775" y="-262" type="line"/>
      <point x="985" y="-158"/>
      <point x="1103" y="16"/>
      <point x="1103" y="226" type="curve" smooth="yes"/>
      <point x="1103" y="462"/>
      <point x="921" y="620"/>
      <point x="649" y="620" type="curve" smooth="yes"/>
      <point x="551" y="620"/>
      <point x="477" y="612"/>
      <point x="403" y="594" type="curve"/>
      <point x="407" y="310" type="line"/>
      <point x="483" y="324"/>
      <point x="521" y="328"/>
      <point x="565" y="328" type="curve" smooth="yes"/>
      <point x="677" y="328"/>
      <point x="741" y="280"/>
      <point x="741" y="196" type="curve" smooth="yes"/>
      <point x="741" y="122"/>
      <point x="689" y="56"/>
      <point x="595" y="8" type="curve"/>
    </contour>
    <component base="ge-cy"/>
  </outline>
</glyph>
<glyph name="Kabashkir-cy" format="2">
  <advance width="1750"/>
  <unicode hex="04A0"/>
  <anchor x="1623" y="0" name="descender"/>
  <anchor x="995" y="1400" name="top"/>
  <outline>
    <contour>
      <point x="387" y="1032" type="line"/>
      <point x="791" y="1400" type="line"/>
      <point x="67" y="1400" type="line"/>
      <point x="-13" y="1032" type="line"/>
    </contour>
    <component base="Ka-cy" xOffset="234"/>
  </outline>
</glyph>
<glyph name="kabashkir-cy" format="2">
  <advance width="1446"/>
  <unicode hex="04A1"/>
  <outline>
    <contour>
      <point x="965" y="0" type="line"/>
      <point x="1435" y="0" type="line"/>
      <point x="1081" y="560" type="line"/>
      <point x="1417" y="1040" type="line"/>
      <point x="997" y="1040" type="line"/>
      <point x="655" y="538" type="line"/>
    </contour>
    <contour>
      <point x="305" y="0" type="line"/>
      <point x="705" y="0" type="line"/>
      <point x="705" y="370" type="line"/>
      <point x="1025" y="370" type="line"/>
      <point x="1025" y="682" type="line"/>
      <point x="705" y="682" type="line"/>
      <point x="705" y="1040" type="line"/>
      <point x="305" y="1040" type="line"/>
    </contour>
    <contour>
      <point x="3" y="728" type="line"/>
      <point x="305" y="728" type="line"/>
      <point x="705" y="1040" type="line"/>
      <point x="83" y="1040" type="line"/>
    </contour>
  </outline>
</glyph>
<glyph name="Enghe-cy" format="2">
  <advance width="1952"/>
  <unicode hex="04A4"/>
  <anchor x="1424" y="0" name="descender"/>
  <anchor x="791" y="1400" name="top"/>
  <anchor x="37" y="1400" name="topleft"/>
  <outline>
    <contour>
      <point x="1429" y="1032" type="line"/>
      <point x="1925" y="1032" type="line"/>
      <point x="1925" y="1400" type="line"/>
      <point x="1025" y="1400" type="line"/>
    </contour>
    <component base="En-cy"/>
  </outline>
</glyph>
<glyph name="Shha-cy" format="2">
  <advance width="1472"/>
  <unicode hex="04BA"/>
  <outline>
    <contour>
      <point x="156" y="0" type="line"/>
      <point x="560" y="0" type="line"/>
      <point x="560" y="582" type="line"/>
      <point x="626" y="598"/>
      <point x="690" y="608"/>
      <point x="776" y="608" type="curve" smooth="yes"/>
      <point x="916" y="608"/>
      <point x="992" y="542"/>
      <point x="992" y="358" type="curve" smooth="yes"/>
      <point x="992" y="0" type="line"/>
      <point x="1396" y="0" type="line"/>
      <point x="1396" y="412" type="line" smooth="yes"/>
      <point x="1396" y="804"/>
      <point x="1180" y="960"/>
      <point x="860" y="960" type="curve" smooth="yes"/>
      <point x="756" y="960"/>
      <point x="664" y="942"/>
      <point x="560" y="912" type="curve"/>
      <point x="560" y="1400" type="line"/>
      <point x="156" y="1400" type="line"/>
    </contour>
  </outline>
</glyph>
<glyph name="Obarred-cy" format="2">
  <advance width="1648"/>
  <unicode hex="04E8"/>
  <anchor x="824" y="0" name="bottom"/>
  <anchor x="1228" y="1400" name="horn"/>
  <anchor x="1084" y="0" name="ogonek"/>
  <anchor x="824" y="1400" name="top"/>
  <anchor x="90" y="1400" name="topleft"/>
  <outline>
    <contour>
      <point x="354" y="562" type="line"/>
      <point x="1316" y="562" type="line"/>
      <point x="1316" y="864" type="line"/>
      <point x="354" y="864" type="line"/>
    </contour>
    <component base="O"/>
  </outline>
</glyph>
<glyph name="obarred-cy" format="2">
  <advance width="1270"/>
  <unicode hex="04E9"/>
  <outline>
    <contour>
      <point x="347" y="404" type="line"/>
      <point x="927" y="404" type="line"/>
      <point x="927" y="650" type="line"/>
      <point x="347" y="650" type="line"/>
    </contour>
    <contour>
      <point x="635" y="-30" type="curve" smooth="yes"/>
      <point x="983" y="-30"/>
      <point x="1223" y="232"/>
      <point x="1223" y="520" type="curve" smooth="yes"/>
      <point x="1223" y="820"/>
      <point x="983" y="1070"/>
      <point x="635" y="1070" type="curve" smooth="yes"/>
      <point x="287" y="1070"/>
      <point x="47" y="808"/>
      <point x="47" y="520" type="curve" smooth="yes"/>
      <point x="47" y="220"/>
      <point x="287" y="-30"/>
    </contour>
    <contour>
      <point x="635" y="268" type="curve" smooth="yes"/>
      <point x="499" y="268"/>
      <point x="393" y="364"/>
      <point x="393" y="520" type="curve" smooth="yes"/>
      <point x="393" y="676"/>
      <point x="497" y="772"/>
      <point x="635" y="772" type="curve" smooth="yes"/>
      <point x="771" y="772"/>
      <point x="877" y="676"/>
      <point x="877" y="520" type="curve" smooth="yes"/>
      <point x="877" y="364"/>
      <point x="771" y="268"/>
    </contour>
  </outline>
</glyph>
<glyph name="Germandbls" format="2">
  <advance width="1582"/>
  <unicode hex="1E9E"/>
  <outline>
    <contour>
      <point x="1025" y="-26" type="curve" smooth="yes"/>
      <point x="1321" y="-26"/>
      <point x="1545" y="150"/>
      <point x="1545" y="384" type="curve" smooth="yes"/>
      <point x="1545" y="628"/>
      <point x="1259" y="692"/>
      <point x="1259" y="838" type="curve" smooth="yes"/>
      <point x="1259" y="900"/>
      <point x="1295" y="962"/>
      <point x="1419" y="1038" type="curve"/>
      <point x="1419" y="1276" type="line"/>
      <point x="1249" y="1372"/>
      <point x="1065" y="1430"/>
      <point x="819" y="1430" type="curve" smooth="yes"/>
      <point x="429" y="1430"/>
      <point x="151" y="1200"/>
      <point x="151" y="816" type="curve" smooth="yes"/>
      <point x="151" y="0" type="line"/>
      <point x="591" y="0" type="line"/>
      <point x="591" y="816" type="line" smooth="yes"/>
      <point x="591" y="972"/>
      <point x="671" y="1074"/>
      <point x="807" y="1074" type="curve" smooth="yes"/>
      <point x="891" y="1074"/>
      <point x="955" y="1048"/>
      <point x="995" y="1016" type="curve"/>
      <point x="881" y="940"/>
      <point x="829" y="842"/>
      <point x="829" y="778" type="curve" smooth="yes"/>
      <point x="829" y="556"/>
      <point x="1091" y="508"/>
      <point x="1091" y="394" type="curve" smooth="yes"/>
      <point x="1091" y="330"/>
      <point x="1029" y="290"/>
      <point x="939" y="290" type="curve" smooth="yes"/>
      <point x="869" y="290"/>
      <point x="795" y="316"/>
      <point x="719" y="360" type="curve"/>
      <point x="719" y="8" type="line"/>
      <point x="847" y="-16"/>
      <point x="945" y="-26"/>
    </contour>
  </outline>
</glyph>
<glyph name="emdash" format="2">
  <advance width="2000"/>
  <unicode hex="2014"/>
  <outline>
    <contour>
      <point x="200" y="412" type="line"/>
      <point x="1800" y="412" type="line"/>
      <point x="1800" y="728" type="line"/>
      <point x="200" y="728" type="line"/>
    </contour>
  </outline>
</glyph>
<glyph name="quoteleft" format="2">
  <advance width="600"/>
  <unicode hex="2018"/>
  <outline>
    <contour>
      <point x="315" y="588" type="curve" smooth="yes"/>
      <point x="449" y="588"/>
      <point x="543" y="677"/>
      <point x="543" y="813" type="curve" smooth="yes"/>
      <point x="543" y="956"/>
      <point x="410" y="1041"/>
      <point x="282" y="1013" type="curve"/>
      <point x="303" y="1122"/>
      <point x="404" y="1185"/>
      <point x="535" y="1192" type="curve"/>
      <point x="535" y="1400" type="line"/>
      <point x="194" y="1373"/>
      <point x="39" y="1150"/>
      <point x="39" y="884" type="curve" smooth="yes"/>
      <point x="39" y="698"/>
      <point x="165" y="588"/>
    </contour>
  </outline>
</glyph>
<glyph name="guilsinglright" format="2">
  <advance width="710"/>
  <unicode hex="203A"/>
  <outline>
    <contour>
      <point x="436" y="140" type="line"/>
      <point x="670" y="530" type="line"/>
      <point x="436" y="918" type="line"/>
      <point x="70" y="918" type="line"/>
      <point x="302" y="530" type="line"/>
      <point x="70" y="140" type="line"/>
    </contour>
  </outline>
</glyph>
<glyph name="fraction" format="2">
  <advance width="394"/>
  <unicode hex="2044"/>
  <outline>
    <contour>
      <point x="-62" y="0" type="line"/>
      <point x="722" y="1400" type="line"/>
      <point x="458" y="1400" type="line"/>
      <point x="-328" y="0" type="line"/>
    </contour>
  </outline>
</glyph>
<glyph name="euro" format="2">
  <advance width="1296"/>
  <unicode hex="20AC"/>
  <outline>
    <contour>
      <point x="802" y="-30" type="curve" smooth="yes"/>
      <point x="948" y="-30"/>
      <point x="1078" y="-2"/>
      <point x="1184" y="52" type="curve"/>
      <point x="1184" y="396" type="line"/>
      <point x="1050" y="314"/>
      <point x="944" y="284"/>
      <point x="812" y="284" type="curve" smooth="yes"/>
      <point x="688" y="284"/>
      <point x="606" y="322"/>
      <point x="552" y="420" type="curve"/>
      <point x="928" y="420" type="line"/>
      <point x="928" y="646" type="line"/>
      <point x="508" y="646" type="line"/>
      <point x="504" y="678"/>
      <point x="504" y="724"/>
      <point x="508" y="758" type="curve"/>
      <point x="928" y="758" type="line"/>
      <point x="928" y="984" type="line"/>
      <point x="558" y="984" type="line"/>
      <point x="616" y="1078"/>
      <point x="702" y="1116"/>
      <point x="808" y="1116" type="curve" smooth="yes"/>
      <point x="928" y="1116"/>
      <point x="1026" y="1092"/>
      <point x="1146" y="1022" type="curve"/>
      <point x="1146" y="1362" type="line"/>
      <point x="1050" y="1406"/>
      <point x="928" y="1430"/>
      <point x="810" y="1430" type="curve" smooth="yes"/>
      <point x="528" y="1430"/>
      <point x="282" y="1270"/>
      <point x="182" y="984" type="curve"/>
      <point x="14" y="984" type="line"/>
      <point x="14" y="758" type="line"/>
      <point x="146" y="758" type="line"/>
      <point x="142" y="736"/>
      <point x="142" y="672"/>
      <point x="144" y="648" type="curve"/>
      <point x="14" y="648" type="line"/>
      <point x="14" y="420" type="line"/>
      <point x="174" y="420" type="line"/>
      <point x="258" y="140"/>
      <point x="492" y="-30"/>
    </contour>
  </outline>
</glyph>
<glyph name="peso" format="2">
  <advance width="1296"/>
  <unicode hex="20B1"/>
  <outline>
    <contour>
      <point x="174" y="0" type="line"/>
      <point x="518" y="0" type="line"/>
      <point x="518" y="344" type="line"/>
      <point x="642" y="344" type="line" smooth="yes"/>
      <point x="978" y="344"/>
      <point x="1170" y="532"/>
      <point x="1170" y="872" type="curve" smooth="yes"/>
      <point x="1170" y="1226"/>
      <point x="938" y="1400"/>
      <point x="652" y="1400" type="curve" smooth="yes"/>
      <point x="174" y="1400" type="line"/>
    </contour>
    <contour>
      <point x="518" y="590" type="line"/>
      <point x="518" y="1144" type="line"/>
      <point x="630" y="1144" type="line" smooth="yes"/>
      <point x="740" y="1144"/>
      <point x="826" y="1074"/>
      <point x="826" y="866" type="curve" smooth="yes"/>
      <point x="826" y="640"/>
      <point x="730" y="590"/>
      <point x="628" y="590" type="curve" smooth="yes"/>
    </contour>
    <contour>
      <point x="4" y="904" type="line"/>
      <point x="1332" y="904" type="line"/>
      <point x="1332" y="1090" type="line"/>
      <point x="4" y="1090" type="line"/>
    </contour>
    <contour>
      <point x="4" y="646" type="line"/>
      <point x="1332" y="646" type="line"/>
      <point x="1332" y="832" type="line"/>
      <point x="4" y="832" type="line"/>
    </contour>
  </outline>
</glyph>
<glyph name="tenge" format="2">
  <advance width="1296"/>
  <unicode hex="20B8"/>
  <outline>
    <contour>
      <point x="448" y="0" type="line"/>
      <point x="848" y="0" type="line"/>
      <point x="848" y="836" type="line"/>
      <point x="1208" y="836" type="line"/>
      <point x="1208" y="1062" type="line"/>
      <point x="88" y="1062" type="line"/>
      <point x="88" y="836" type="line"/>
      <point x="448" y="836" type="line"/>
    </contour>
    <contour>
      <point x="88" y="1174" type="line"/>
      <point x="1208" y="1174" type="line"/>
      <point x="1208" y="1400" type="line"/>
      <point x="88" y="1400" type="line"/>
    </contour>
  </outline>
</glyph>
<glyph name="upArrow" format="2">
  <advance width="1800"/>
  <unicode hex="2191"/>
  <outline>
    <contour>
      <point x="750" y="-120" type="line"/>
      <point x="1046" y="-120" type="line"/>
      <point x="1048" y="1018" type="line"/>
      <point x="1384" y="682" type="line"/>
      <point x="1582" y="880" type="line"/>
      <point x="900" y="1562" type="line"/>
      <point x="218" y="880" type="line"/>
      <point x="416" y="682" type="line"/>
      <point x="752" y="1018" type="line"/>
    </contour>
  </outline>
</glyph>
<glyph name="southEastArrow" format="2">
  <advance width="1800"/>
  <unicode hex="2198"/>
  <outline>
    <contour>
      <point x="676" y="0" type="line"/>
      <point x="1640" y="0" type="line"/>
      <point x="1638" y="964" type="line"/>
      <point x="1358" y="964" type="line"/>
      <point x="1358" y="492" type="line"/>
      <point x="384" y="1464" type="line"/>
      <point x="174" y="1254" type="line"/>
      <point x="1150" y="280" type="line"/>
      <point x="676" y="280" type="line"/>
    </contour>
  </outline>
</glyph>
<glyph name="minus" format="2">
  <advance width="1296"/>
  <unicode hex="2212"/>
  <outline>
    <contour>
      <point x="68" y="536" type="line"/>
      <point x="1228" y="536" type="line"/>
      <point x="1228" y="804" type="line"/>
      <point x="68" y="804" type="line"/>
    </contour>
  </outline>
</glyph>
<glyph name="divisionslash" format="2">
  <advance width="1296"/>
  <unicode hex="2215"/>
  <outline>
    <contour>
      <point x="389" y="0" type="line"/>
      <point x="1173" y="1400" type="line"/>
      <point x="909" y="1400" type="line"/>
      <point x="123" y="0" type="line"/>
    </contour>
  </outline>
</glyph>
<glyph name=".notdef" format="2">
  <advance width="1354"/>
  <outline>
    <contour>
      <point x="125" y="0" type="line"/>
      <point x="1229" y="0" type="line"/>
      <point x="1229" y="1400" type="line"/>
      <point x="125" y="1400" type="line"/>
    </contour>
    <contour>
      <point x="449" y="266" type="line"/>
      <point x="449" y="1134" type="line"/>
      <point x="905" y="1134" type="line"/>
      <point x="905" y="266" type="line"/>
    </contour>
  </outline>
</glyph>
<glyph name="_part.Kaverticalstroke-cy" format="2">
  <advance width="1660"/>
  <anchor x="696" y="722" name="center"/>
  <outline>
    <contour>
      <point x="1152" y="0" type="line"/>
      <point x="1670" y="0" type="line"/>
      <point x="1148" y="714" type="line"/>
      <point x="1610" y="1400" type="line"/>
      <point x="1104" y="1400" type="line"/>
      <point x="656" y="714" type="line"/>
    </contour>
    <contour>
      <point x="156" y="0" type="line"/>
      <point x="560" y="0" type="line"/>
      <point x="560" y="538" type="line"/>
      <point x="988" y="538" type="line"/>
      <point x="988" y="906" type="line"/>
      <point x="560" y="906" type="line"/>
      <point x="560" y="1400" type="line"/>
      <point x="156" y="1400" type="line"/>
    </contour>
  </outline>
</glyph>
<glyph name="_part.R" format="2">
  <advance width="806"/>
  <anchor x="382" y="392" name="_center"/>
  <anchor x="420" y="0" name="bottom"/>
  <anchor x="382" y="784" name="top"/>
  <outline>
    <contour>
      <point x="96" y="0" type="line"/>
      <point x="298" y="0" type="line"/>
      <point x="298" y="280" type="line"/>
      <point x="364" y="280" type="line"/>
      <point x="538" y="0" type="line"/>
      <point x="778" y="0" type="line"/>
      <point x="564" y="324" type="line"/>
      <point x="658" y="354"/>
      <point x="732" y="428"/>
      <point x="732" y="542" type="curve" smooth="yes"/>
      <point x="732" y="696"/>
      <point x="610" y="784"/>
      <point x="428" y="784" type="curve" smooth="yes"/>
      <point x="96" y="784" type="line"/>
    </contour>
    <contour>
      <point x="298" y="442" type="line"/>
      <point x="298" y="618" type="line"/>
      <point x="410" y="618" type="line" smooth="yes"/>
      <point x="484" y="618"/>
      <point x="528" y="592"/>
      <point x="528" y="530" type="curve" smooth="yes"/>
      <point x="528" y="468"/>
      <point x="482" y="442"/>
      <point x="406" y="442" type="curve" smooth="yes"/>
    </contour>
  </outline>
</glyph>
<glyph name="_part.Tse-cy" format="2">
  <advance width="1582"/>
  <anchor x="791" y="0" name="bottom"/>
  <anchor x="1429" y="0" name="descender"/>
  <outline>
    <contour>
      <point x="153" y="0" type="line"/>
      <point x="1429" y="0" type="line"/>
      <point x="1429" y="1400" type="line"/>
      <point x="1025" y="1400" type="line"/>
      <point x="1025" y="368" type="line"/>
      <point x="557" y="368" type="line"/>
      <point x="557" y="1400" type="line"/>
      <point x="153" y="1400" type="line"/>
    </contour>
  </outline>
</glyph>
<glyph name="_part.currencyBar_Manat" format="2">
  <advance width="1432"/>
  <anchor x="782" y="1400" name="_top"/>
  <outline>
    <contour>
      <point x="660" y="160" type="line"/>
      <point x="902" y="160" type="line"/>
      <point x="902" y="1400" type="line"/>
      <point x="660" y="1400" type="line"/>
    </contour>
  </outline>
</glyph>
<glyph name="_part.currencyVertDiag" format="2">
  <advance width="1432"/>
  <anchor x="796" y="1400" name="_top"/>
  <outline>
    <contour>
      <point x="608" y="-160" type="line"/>
      <point x="848" y="-160" type="line"/>
      <point x="1152" y="1560" type="line"/>
      <point x="908" y="1560" type="line"/>
    </contour>
    <contour>
      <point x="252" y="-160" type="line"/>
      <point x="496" y="-160" type="line"/>
      <point x="796" y="1560" type="line"/>
      <point x="556" y="1560" type="line"/>
    </contour>
  </outline>
</glyph>
<glyph name="_part.cy-desc-lc-reversed" format="2">
  <advance width="1200"/>
  <anchor x="1212" y="0" name="_descender"/>
  <outline>
    <contour>
      <point x="1292" y="-216" type="line"/>
      <point x="1292" y="0" type="line"/>
      <point x="1372" y="0" type="line"/>
      <point x="1372" y="312" type="line"/>
      <point x="928" y="312" type="line"/>
      <point x="928" y="-384" type="line"/>
    </contour>
  </outline>
</glyph>
<glyph name="_part.cy-desc-lc-stem" format="2">
  <advance width="1200"/>
  <guideline x="595" y="-150" angle="0"/>
  <guideline x="595" y="-150" angle="204.9384"/>
  <anchor x="1190" y="0" name="_descender"/>
  <outline>
    <contour>
      <point x="1008" y="-384" type="line"/>
      <point x="1372" y="-216" type="line"/>
      <point x="1372" y="312" type="line"/>
      <point x="1008" y="312" type="line"/>
    </contour>
  </outline>
</glyph>
<glyph name="_part.cy-desc-uc-reversed-stem" format="2">
  <guideline x="-77" y="-198" angle="25.0341"/>
  <guideline x="-72" y="184" angle="25.1148"/>
  <guideline x="-72" y="-175" angle="25.1148"/>
  <anchor x="-144" y="0" name="_descender"/>
  <outline>
    <contour>
      <point x="-336" y="-440" type="line"/>
      <point x="48" y="-260" type="line"/>
      <point x="48" y="0" type="line"/>
      <point x="68" y="20" type="line"/>
      <point x="68" y="468" type="line"/>
      <point x="-336" y="278" type="line"/>
    </contour>
  </outline>
</glyph>
<glyph name="_part.cy-descender-lc-center" format="2">
  <guideline x="-77" y="-150" angle="25.0341"/>
  <anchor x="-154" y="0" name="_bottom"/>
  <outline>
    <contour>
      <point x="-336" y="-386" type="line"/>
      <point x="28" y="-214" type="line"/>
      <point x="28" y="208" type="line"/>
      <point x="-336" y="208" type="line"/>
    </contour>
  </outline>
</glyph>
<glyph name="_part.franc" format="2">
  <advance width="1202"/>
  <outline>
    <contour>
      <point x="158" y="0" type="line"/>
      <point x="526" y="0" type="line"/>
      <point x="526" y="500" type="line"/>
      <point x="1040" y="500" type="line"/>
      <point x="1040" y="822" type="line"/>
      <point x="526" y="822" type="line"/>
      <point x="526" y="1066" type="line"/>
      <point x="1102" y="1066" type="line"/>
      <point x="1102" y="1400" type="line"/>
      <point x="158" y="1400" type="line"/>
    </contour>
  </outline>
</glyph>
<glyph name="_part.guarani" format="2">
  <advance width="1296"/>
  <anchor x="680" y="1400" name="top"/>
  <outline>
    <contour>
      <point x="740" y="-32" type="curve" smooth="yes"/>
      <point x="878" y="-32"/>
      <point x="1060" y="12"/>
      <point x="1182" y="86" type="curve"/>
      <point x="1182" y="818" type="line"/>
      <point x="870" y="818" type="line"/>
      <point x="870" y="312" type="line"/>
      <point x="830" y="298"/>
      <point x="792" y="290"/>
      <point x="764" y="290" type="curve" smooth="yes"/>
      <point x="592" y="290"/>
      <point x="440" y="420"/>
      <point x="440" y="698" type="curve" smooth="yes"/>
      <point x="440" y="948"/>
      <point x="554" y="1096"/>
      <point x="758" y="1096" type="curve" smooth="yes"/>
      <point x="874" y="1096"/>
      <point x="968" y="1070"/>
      <point x="1060" y="1004" type="curve"/>
      <point x="1060" y="1356" type="line"/>
      <point x="940" y="1414"/>
      <point x="826" y="1430"/>
      <point x="730" y="1430" type="curve" smooth="yes"/>
      <point x="370" y="1430"/>
      <point x="66" y="1150"/>
      <point x="66" y="698" type="curve" smooth="yes"/>
      <point x="66" y="242"/>
      <point x="382" y="-32"/>
    </contour>
  </outline>
</glyph>
<glyph name="_part.hryvniaBase" format="2">
  <advance width="1222"/>
  <anchor x="577" y="1400" name="top"/>
  <outline>
    <contour>
      <point x="623" y="-30" type="curve" smooth="yes"/>
      <point x="779" y="-30"/>
      <point x="931" y="6"/>
      <point x="1059" y="74" type="curve"/>
      <point x="1059" y="470" type="line"/>
      <point x="965" y="372"/>
      <point x="775" y="306"/>
      <point x="613" y="306" type="curve" smooth="yes"/>
      <point x="519" y="306"/>
      <point x="465" y="330"/>
      <point x="465" y="392" type="curve" smooth="yes"/>
      <point x="465" y="450"/>
      <point x="507" y="482"/>
      <point x="607" y="522" type="curve" smooth="yes"/>
      <point x="715" y="564" type="line" smooth="yes"/>
      <point x="959" y="660"/>
      <point x="1069" y="810"/>
      <point x="1069" y="996" type="curve" smooth="yes"/>
      <point x="1069" y="1234"/>
      <point x="865" y="1430"/>
      <point x="537" y="1430" type="curve" smooth="yes"/>
      <point x="391" y="1430"/>
      <point x="251" y="1398"/>
      <point x="139" y="1342" type="curve"/>
      <point x="139" y="952" type="line"/>
      <point x="225" y="1034"/>
      <point x="359" y="1094"/>
      <point x="509" y="1094" type="curve" smooth="yes"/>
      <point x="621" y="1094"/>
      <point x="679" y="1056"/>
      <point x="679" y="998" type="curve" smooth="yes"/>
      <point x="679" y="946"/>
      <point x="637" y="918"/>
      <point x="535" y="878" type="curve" smooth="yes"/>
      <point x="435" y="838" type="line" smooth="yes"/>
      <point x="189" y="740"/>
      <point x="69" y="622"/>
      <point x="69" y="432" type="curve" smooth="yes"/>
      <point x="69" y="156"/>
      <point x="273" y="-30"/>
    </contour>
  </outline>
</glyph>
<glyph name="_part.naira" format="2">
  <advance width="1296"/>
  <anchor x="646" y="0" name="bottom"/>
  <anchor x="646" y="1400" name="top"/>
  <outline>
    <contour>
      <point x="138" y="0" type="line"/>
      <point x="482" y="0" type="line"/>
      <point x="482" y="814" type="line"/>
      <point x="796" y="0" type="line"/>
      <point x="1158" y="0" type="line"/>
      <point x="1158" y="1400" type="line"/>
      <point x="812" y="1400" type="line"/>
      <point x="812" y="600" type="line"/>
      <point x="500" y="1400" type="line"/>
      <point x="138" y="1400" type="line"/>
    </contour>
  </outline>
</glyph>
<glyph name="_part.ogonek" format="2">
  <advance width="2"/>
  <anchor x="-434" y="0" name="_ogonek"/>
  <outline>
    <contour>
      <point x="-684" y="-450" type="curve" smooth="yes"/>
      <point x="-612" y="-450"/>
      <point x="-539" y="-432"/>
      <point x="-476" y="-400" type="curve"/>
      <point x="-476" y="-174" type="line"/>
      <point x="-515" y="-204"/>
      <point x="-568" y="-222"/>
      <point x="-618" y="-222" type="curve" smooth="yes"/>
      <point x="-668" y="-222"/>
      <point x="-700" y="-192"/>
      <point x="-700" y="-145" type="curve" smooth="yes"/>
      <point x="-700" y="-59"/>
      <point x="-615" y="0"/>
      <point x="-434" y="0" type="curve"/>
      <point x="-453" y="116" type="line"/>
      <point x="-742" y="103"/>
      <point x="-934" y="-32"/>
      <point x="-934" y="-219" type="curve" smooth="yes"/>
      <point x="-934" y="-354"/>
      <point x="-830" y="-450"/>
    </contour>
  </outline>
</glyph>
<glyph name="_part.peso" format="2">
  <advance width="1296"/>
  <outline>
    <contour>
      <point x="210" y="0" type="line"/>
      <point x="574" y="0" type="line"/>
      <point x="574" y="464" type="line"/>
      <point x="738" y="464" type="line" smooth="yes"/>
      <point x="1060" y="464"/>
      <point x="1246" y="632"/>
      <point x="1246" y="932" type="curve" smooth="yes"/>
      <point x="1246" y="1246"/>
      <point x="1024" y="1400"/>
      <point x="748" y="1400" type="curve" smooth="yes"/>
      <point x="210" y="1400" type="line"/>
    </contour>
    <contour>
      <point x="574" y="770" type="line"/>
      <point x="574" y="1084" type="line"/>
      <point x="726" y="1084" type="line" smooth="yes"/>
      <point x="814" y="1084"/>
      <point x="882" y="1044"/>
      <point x="882" y="926" type="curve" smooth="yes"/>
      <point x="882" y="798"/>
      <point x="806" y="770"/>
      <point x="724" y="770" type="curve" smooth="yes"/>
    </contour>
  </outline>
</glyph>
<glyph name="_part.rupee" format="2">
  <advance width="1296"/>
  <outline>
    <contour>
      <point x="510" y="0" type="line"/>
      <point x="944" y="0" type="line"/>
      <point x="578" y="580" type="line"/>
      <point x="740" y="638"/>
      <point x="862" y="762"/>
      <point x="862" y="968" type="curve" smooth="yes"/>
      <point x="862" y="1238"/>
      <point x="654" y="1400"/>
      <point x="334" y="1400" type="curve" smooth="yes"/>
      <point x="156" y="1400" type="line"/>
      <point x="156" y="1096" type="line"/>
      <point x="300" y="1096" type="line" smooth="yes"/>
      <point x="404" y="1096"/>
      <point x="492" y="1068"/>
      <point x="492" y="948" type="curve" smooth="yes"/>
      <point x="492" y="826"/>
      <point x="400" y="802"/>
      <point x="300" y="802" type="curve" smooth="yes"/>
      <point x="156" y="802" type="line"/>
      <point x="156" y="610" type="line"/>
    </contour>
  </outline>
</glyph>
<glyph name="_part.verticalstroke" format="2">
  <advance width="1200"/>
  <anchor x="510" y="780" name="_center"/>
  <outline>
    <contour>
      <point x="428" y="450" type="line"/>
      <point x="592" y="450" type="line"/>
      <point x="592" y="1186" type="line"/>
      <point x="428" y="1110" type="line"/>
    </contour>
  </outline>
</glyph>
<glyph name="acutecomb.case" format="2">
  <anchor x="220" y="1400" name="_top"/>
  <outline>
    <contour>
      <point x="10" y="1508" type="line"/>
      <point x="386" y="1508" type="line"/>
      <point x="626" y="1862" type="line"/>
      <point x="212" y="1862" type="line"/>
    </contour>
  </outline>
</glyph>
<glyph name="breveinvertedcomb.narrow" format="2">
  <anchor x="406" y="1040" name="_top"/>
  <outline>
    <contour>
      <point x="10" y="1170" type="curve"/>
      <point x="328" y="1170" type="line"/>
      <point x="324" y="1252"/>
      <point x="356" y="1304"/>
      <point x="406" y="1304" type="curve" smooth="yes"/>
      <point x="456" y="1304"/>
      <point x="488" y="1252"/>
      <point x="484" y="1170" type="curve"/>
      <point x="802" y="1170" type="line"/>
      <point x="804" y="1396"/>
      <point x="644" y="1554"/>
      <point x="406" y="1554" type="curve" smooth="yes"/>
      <point x="164" y="1554"/>
      <point x="8" y="1400"/>
    </contour>
  </outline>
</glyph>
<glyph name="caroncomb.alt" format="2">
  <anchor x="-60" y="1440" name="_caron"/>
  <outline>
    <contour>
      <point x="10" y="1092" type="line"/>
      <point x="272" y="1092" type="line"/>
      <point x="350" y="1440" type="line"/>
      <point x="10" y="1440" type="line"/>
    </contour>
  </outline>
</glyph>
<glyph name="circumflexcomb.case" format="2">
  <anchor x="506" y="1400" name="_top"/>
  <anchor x="506" y="1806" name="top"/>
  <anchor x="1004" y="1734" name="top_right"/>
  <outline>
    <contour>
      <point x="10" y="1508" type="line"/>
      <point x="384" y="1508" type="line"/>
      <point x="500" y="1638" type="line"/>
      <point x="614" y="1508" type="line"/>
      <point x="1004" y="1508" type="line"/>
      <point x="684" y="1862" type="line"/>
      <point x="328" y="1862" type="line"/>
    </contour>
  </outline>
</glyph>
<glyph name="circumflexcomb.narrow" format="2">
  <anchor x="452" y="1040" name="_top"/>
  <anchor x="452" y="1484" name="top"/>
  <anchor x="896" y="1384" name="top_right"/>
  <outline>
    <contour>
      <point x="10" y="1170" type="line"/>
      <point x="364" y="1170" type="line"/>
      <point x="444" y="1328" type="line"/>
      <point x="526" y="1170" type="line"/>
      <point x="896" y="1170" type="line"/>
      <point x="618" y="1544" type="line"/>
      <point x="284" y="1544" type="line"/>
    </contour>
  </outline>
</glyph>
<glyph name="dblgravecomb.narrow" format="2">
  <anchor x="494" y="1040" name="_top"/>
  <outline>
    <contour>
      <point x="870" y="1170" type="line"/>
      <point x="766" y="1544" type="line"/>
      <point x="434" y="1544" type="line"/>
      <point x="574" y="1170" type="line"/>
    </contour>
    <contour>
      <point x="454" y="1170" type="line"/>
      <point x="350" y="1544" type="line"/>
      <point x="10" y="1544" type="line"/>
      <point x="150" y="1170" type="line"/>
    </contour>
  </outline>
</glyph>
<glyph name="f.calt" format="2">
  <advance width="878"/>
  <outline>
    <contour>
      <point x="201" y="0" type="line"/>
      <point x="601" y="0" type="line"/>
      <point x="601" y="728" type="line"/>
      <point x="843" y="728" type="line"/>
      <point x="843" y="1040" type="line"/>
      <point x="601" y="1040" type="line"/>
      <point x="601" y="1074" type="line" smooth="yes"/>
      <point x="601" y="1123"/>
      <point x="623" y="1146"/>
      <point x="671" y="1146" type="curve" smooth="yes"/>
      <point x="692" y="1146"/>
      <point x="710" y="1144"/>
      <point x="729" y="1138" type="curve"/>
      <point x="729" y="1455" type="line"/>
      <point x="684" y="1466"/>
      <point x="636" y="1470"/>
      <point x="573" y="1470" type="curve" smooth="yes"/>
      <point x="353" y="1470"/>
      <point x="201" y="1346"/>
      <point x="201" y="1106" type="curve" smooth="yes"/>
    </contour>
    <contour>
      <point x="-3" y="728" type="line"/>
      <point x="241" y="728" type="line"/>
      <point x="241" y="1060" type="line"/>
      <point x="-3" y="808" type="line"/>
    </contour>
  </outline>
</glyph>
<glyph name="four.dnom" format="2">
  <advance width="848"/>
  <outline>
    <contour>
      <point x="468" y="0" type="line"/>
      <point x="682" y="0" type="line"/>
      <point x="682" y="160" type="line"/>
      <point x="800" y="160" type="line"/>
      <point x="800" y="366" type="line"/>
      <point x="682" y="366" type="line"/>
      <point x="682" y="528" type="line"/>
      <point x="468" y="528" type="line"/>
      <point x="468" y="366" type="line"/>
      <point x="300" y="366" type="line"/>
      <point x="564" y="910" type="line"/>
      <point x="310" y="910" type="line"/>
      <point x="34" y="344" type="line"/>
      <point x="34" y="160" type="line"/>
      <point x="468" y="160" type="line"/>
    </contour>
  </outline>
</glyph>
<glyph name="ge-cy.loclBGR" format="2">
  <advance width="1062"/>
  <anchor x="527" y="0" name="bottom"/>
  <anchor x="519" y="1040" name="top"/>
  <outline>
    <contour>
      <point x="521" y="-28" type="curve" smooth="yes"/>
      <point x="701" y="-28"/>
      <point x="845" y="6"/>
      <point x="969" y="74" type="curve"/>
      <point x="969" y="376" type="line"/>
      <point x="877" y="306"/>
      <point x="721" y="264"/>
      <point x="569" y="264" type="curve" smooth="yes"/>
      <point x="479" y="264"/>
      <point x="439" y="286"/>
      <point x="439" y="326" type="curve" smooth="yes"/>
      <point x="439" y="362"/>
      <point x="459" y="372"/>
      <point x="555" y="400" type="curve" smooth="yes"/>
      <point x="848" y="486"/>
      <point x="961" y="592"/>
      <point x="961" y="770" type="curve" smooth="yes"/>
      <point x="961" y="968"/>
      <point x="789" y="1080"/>
      <point x="523" y="1080" type="curve" smooth="yes"/>
      <point x="369" y="1080"/>
      <point x="229" y="1046"/>
      <point x="117" y="986" type="curve"/>
      <point x="117" y="686" type="line"/>
      <point x="189" y="746"/>
      <point x="329" y="788"/>
      <point x="461" y="788" type="curve" smooth="yes"/>
      <point x="547" y="788"/>
      <point x="593" y="764"/>
      <point x="593" y="726" type="curve" smooth="yes"/>
      <point x="593" y="690"/>
      <point x="567" y="676"/>
      <point x="481" y="654" type="curve" smooth="yes"/>
      <point x="184" y="578"/>
      <point x="71" y="466"/>
      <point x="71" y="290" type="curve" smooth="yes"/>
      <point x="71" y="86"/>
      <point x="249" y="-28"/>
    </contour>
  </outline>
</glyph>
<glyph name="gravecomb.narrow" format="2">
  <anchor x="386" y="1040" name="_top"/>
  <outline>
    <contour>
      <point x="216" y="1170" type="line"/>
      <point x="582" y="1170" type="line"/>
      <point x="410" y="1544" type="line"/>
      <point x="10" y="1544" type="line"/>
    </contour>
  </outline>
</glyph>
<glyph name="hardsign-cy.loclBGR" format="2">
  <advance width="1362"/>
  <outline>
    <contour>
      <point x="813" y="-30" type="curve" smooth="yes"/>
      <point x="1105" y="-30"/>
      <point x="1315" y="164"/>
      <point x="1315" y="388" type="curve" smooth="yes"/>
      <point x="1315" y="618"/>
      <point x="1127" y="766"/>
      <point x="873" y="766" type="curve" smooth="yes"/>
      <point x="779" y="766"/>
      <point x="691" y="756"/>
      <point x="623" y="732" type="curve"/>
      <point x="699" y="572" type="line"/>
      <point x="699" y="1040" type="line"/>
      <point x="299" y="1040" type="line"/>
      <point x="299" y="396" type="line" smooth="yes"/>
      <point x="299" y="126"/>
      <point x="509" y="-30"/>
    </contour>
    <contour>
      <point x="813" y="258" type="curve" smooth="yes"/>
      <point x="737" y="258"/>
      <point x="671" y="302"/>
      <point x="671" y="368" type="curve" smooth="yes"/>
      <point x="671" y="436"/>
      <point x="737" y="476"/>
      <point x="813" y="476" type="curve" smooth="yes"/>
      <point x="885" y="476"/>
      <point x="955" y="436"/>
      <point x="955" y="368" type="curve" smooth="yes"/>
      <point x="955" y="302"/>
      <point x="887" y="258"/>
    </contour>
    <contour>
      <point x="-7" y="728" type="line"/>
      <point x="319" y="728" type="line"/>
      <point x="699" y="1040" type="line"/>
      <point x="73" y="1040" type="line"/>
    </contour>
  </outline>
</glyph>
<glyph name="hookabovecomb.narrow" format="2">
  <anchor x="-630" y="1040" name="_top"/>
  <outline>
    <contour>
      <point x="-750" y="1170" type="curve"/>
      <point x="-514" y="1170" type="line"/>
      <point x="-532" y="1212"/>
      <point x="-524" y="1234"/>
      <point x="-462" y="1272" type="curve" smooth="yes"/>
      <point x="-384" y="1320"/>
      <point x="-358" y="1370"/>
      <point x="-358" y="1446" type="curve" smooth="yes"/>
      <point x="-358" y="1562"/>
      <point x="-462" y="1634"/>
      <point x="-630" y="1634" type="curve" smooth="yes"/>
      <point x="-718" y="1634"/>
      <point x="-814" y="1612"/>
      <point x="-878" y="1576" type="curve"/>
      <point x="-878" y="1388" type="line"/>
      <point x="-826" y="1412"/>
      <point x="-784" y="1426"/>
      <point x="-712" y="1426" type="curve" smooth="yes"/>
      <point x="-684" y="1426"/>
      <point x="-662" y="1414"/>
      <point x="-662" y="1392" type="curve" smooth="yes"/>
      <point x="-662" y="1368"/>
      <point x="-670" y="1362"/>
      <point x="-706" y="1346" type="curve" smooth="yes"/>
      <point x="-778" y="1316"/>
      <point x="-796" y="1256"/>
    </contour>
  </outline>
</glyph>
<glyph name="horncomb.alt" format="2">
  <anchor x="86" y="1040" name="_horn"/>
  <outline>
    <contour>
      <point x="154" y="720" type="curve" smooth="yes"/>
      <point x="330" y="720"/>
      <point x="446" y="844"/>
      <point x="446" y="1002" type="curve" smooth="yes"/>
      <point x="446" y="1072"/>
      <point x="422" y="1151"/>
      <point x="374" y="1224" type="curve"/>
      <point x="88" y="1224" type="line"/>
      <point x="140" y="1149"/>
      <point x="162" y="1079"/>
      <point x="162" y="1026" type="curve" smooth="yes"/>
      <point x="162" y="978"/>
      <point x="136" y="944"/>
      <point x="86" y="944" type="curve" smooth="yes"/>
      <point x="64" y="944"/>
      <point x="38" y="950"/>
      <point x="10" y="960" type="curve"/>
      <point x="10" y="744" type="line"/>
      <point x="58" y="730"/>
      <point x="106" y="720"/>
    </contour>
  </outline>
</glyph>
<glyph name="jdotless.calt" format="2">
  <advance width="650"/>
  <anchor x="325" y="1040" name="top"/>
  <outline>
    <contour>
      <point x="153" y="-450" type="curve" smooth="yes"/>
      <point x="373" y="-450"/>
      <point x="525" y="-326"/>
      <point x="525" y="-86" type="curve" smooth="yes"/>
      <point x="525" y="1100" type="line"/>
      <point x="125" y="914" type="line"/>
      <point x="125" y="-54" type="line" smooth="yes"/>
      <point x="125" y="-103"/>
      <point x="103" y="-126"/>
      <point x="55" y="-126" type="curve" smooth="yes"/>
      <point x="34" y="-126"/>
      <point x="16" y="-124"/>
      <point x="-3" y="-118" type="curve"/>
      <point x="-3" y="-435" type="line"/>
      <point x="42" y="-446"/>
      <point x="90" y="-450"/>
    </contour>
  </outline>
</glyph>
<glyph name="macroncomb.wide" format="2">
  <anchor x="-640" y="1040" name="_top"/>
  <outline>
    <contour>
      <point x="-1152" y="1230" type="line"/>
      <point x="-126" y="1230" type="line"/>
      <point x="-126" y="1462" type="line"/>
      <point x="-1152" y="1462" type="line"/>
    </contour>
  </outline>
</glyph>
<glyph name="nine.ss02" format="2">
  <advance width="1274"/>
  <outline>
    <contour>
      <point x="234" y="0" type="line"/>
      <point x="648" y="0" type="line"/>
      <point x="950" y="414" type="line" smooth="yes"/>
      <point x="1064" y="570"/>
      <point x="1184" y="736"/>
      <point x="1184" y="932" type="curve" smooth="yes"/>
      <point x="1184" y="1208"/>
      <point x="958" y="1430"/>
      <point x="642" y="1430" type="curve" smooth="yes"/>
      <point x="324" y="1430"/>
      <point x="88" y="1214"/>
      <point x="88" y="936" type="curve" smooth="yes"/>
      <point x="88" y="674"/>
      <point x="302" y="484"/>
      <point x="558" y="484" type="curve" smooth="yes"/>
      <point x="640" y="484"/>
      <point x="744" y="504"/>
      <point x="828" y="544" type="curve"/>
      <point x="704" y="630" type="line"/>
    </contour>
    <contour>
      <point x="638" y="756" type="curve" smooth="yes"/>
      <point x="536" y="756"/>
      <point x="456" y="818"/>
      <point x="456" y="938" type="curve" smooth="yes"/>
      <point x="456" y="1054"/>
      <point x="542" y="1118"/>
      <point x="636" y="1118" type="curve" smooth="yes"/>
      <point x="732" y="1118"/>
      <point x="816" y="1054"/>
      <point x="816" y="938" type="curve" smooth="yes"/>
      <point x="816" y="822"/>
      <point x="736" y="756"/>
    </contour>
  </outline>
</glyph>
<glyph name="one.dnom" format="2">
  <advance width="638"/>
  <outline>
    <contour>
      <point x="274" y="0" type="line"/>
      <point x="512" y="0" type="line"/>
      <point x="512" y="930" type="line"/>
      <point x="496" y="930" type="line"/>
      <point x="78" y="790" type="line"/>
      <point x="78" y="560" type="line"/>
      <point x="274" y="622" type="line"/>
    </contour>
  </outline>
</glyph>
<glyph name="one.numr" format="2">
  <advance width="638"/>
  <outline>
    <contour>
      <point x="274" y="490" type="line"/>
      <point x="512" y="490" type="line"/>
      <point x="512" y="1420" type="line"/>
      <point x="496" y="1420" type="line"/>
      <point x="78" y="1280" type="line"/>
      <point x="78" y="1050" type="line"/>
      <point x="274" y="1112" type="line"/>
    </contour>
  </outline>
</glyph>
<glyph name="periodcentered.loclCAT.case" format="2">
  <outline>
    <contour>
      <point x="-220" y="572" type="curve" smooth="yes"/>
      <point x="-94" y="572"/>
      <point x="14" y="656"/>
      <point x="14" y="794" type="curve" smooth="yes"/>
      <point x="14" y="934"/>
      <point x="-94" y="1018"/>
      <point x="-220" y="1018" type="curve" smooth="yes"/>
      <point x="-346" y="1018"/>
      <point x="-454" y="934"/>
      <point x="-454" y="794" type="curve" smooth="yes"/>
      <point x="-454" y="656"/>
      <point x="-346" y="572"/>
    </contour>
  </outline>
</glyph>
<glyph name="sha-cy.loclBGR" format="2">
  <advance width="2000"/>
  <anchor x="1875" y="0" name="descender"/>
  <anchor x="995" y="1040" name="top"/>
  <outline>
    <contour>
      <point x="515" y="-30" type="curve" smooth="yes"/>
      <point x="675" y="-30"/>
      <point x="819" y="36"/>
      <point x="885" y="154" type="curve"/>
      <point x="923" y="38"/>
      <point x="1043" y="-30"/>
      <point x="1183" y="-30" type="curve" smooth="yes"/>
      <point x="1293" y="-30"/>
      <point x="1409" y="24"/>
      <point x="1475" y="120" type="curve"/>
      <point x="1475" y="0" type="line"/>
      <point x="1875" y="0" type="line"/>
      <point x="1875" y="1100" type="line"/>
      <point x="1475" y="914" type="line"/>
      <point x="1475" y="454" type="line" smooth="yes"/>
      <point x="1475" y="388"/>
      <point x="1417" y="330"/>
      <point x="1339" y="330" type="curve" smooth="yes"/>
      <point x="1241" y="330"/>
      <point x="1195" y="394"/>
      <point x="1195" y="492" type="curve" smooth="yes"/>
      <point x="1195" y="1100" type="line"/>
      <point x="795" y="914" type="line"/>
      <point x="795" y="454" type="line" smooth="yes"/>
      <point x="795" y="388"/>
      <point x="737" y="330"/>
      <point x="659" y="330" type="curve" smooth="yes"/>
      <point x="561" y="330"/>
      <point x="515" y="394"/>
      <point x="515" y="492" type="curve" smooth="yes"/>
      <point x="515" y="1100" type="line"/>
      <point x="115" y="914" type="line"/>
      <point x="115" y="378" type="line" smooth="yes"/>
      <point x="115" y="166"/>
      <point x="205" y="-30"/>
    </contour>
  </outline>
</glyph>
<glyph name="strokeshortcomb.case" format="2">
  <anchor x="512" y="712" name="_bar"/>
  <outline>
    <contour>
      <point x="10" y="558" type="line"/>
      <point x="1016" y="558" type="line"/>
      <point x="1016" y="866" type="line"/>
      <point x="10" y="866" type="line"/>
    </contour>
  </outline>
</glyph>
<glyph name="tildecomb.case" format="2">
  <anchor x="-834" y="1400" name="_top"/>
  <anchor x="-834" y="1802" name="top"/>
  <outline>
    <contour>
      <point x="-1275" y="1506" type="line"/>
      <point x="-1218" y="1565"/>
      <point x="-1143" y="1604"/>
      <point x="-1062" y="1604" type="curve" smooth="yes"/>
      <point x="-941" y="1604"/>
      <point x="-784" y="1508"/>
      <point x="-629" y="1508" type="curve" smooth="yes"/>
      <point x="-530" y="1508"/>
      <point x="-456" y="1545"/>
      <point x="-394" y="1602" type="curve"/>
      <point x="-394" y="1868" type="line"/>
      <point x="-451" y="1808"/>
      <point x="-526" y="1770"/>
      <point x="-606" y="1770" type="curve" smooth="yes"/>
      <point x="-727" y="1770"/>
      <point x="-884" y="1866"/>
      <point x="-1039" y="1866" type="curve" smooth="yes"/>
      <point x="-1139" y="1866"/>
      <point x="-1214" y="1829"/>
      <point x="-1275" y="1774" type="curve"/>
    </contour>
  </outline>
</glyph>
<glyph name="ve-cy.loclBGR" format="2">
  <advance width="1274"/>
  <outline>
    <contour>
      <point x="655" y="-30" type="curve" smooth="yes"/>
      <point x="993" y="-30"/>
      <point x="1207" y="158"/>
      <point x="1207" y="434" type="curve" smooth="yes"/>
      <point x="1207" y="584"/>
      <point x="1125" y="720"/>
      <point x="977" y="786" type="curve"/>
      <point x="1097" y="848"/>
      <point x="1169" y="966"/>
      <point x="1169" y="1088" type="curve" smooth="yes"/>
      <point x="1169" y="1322"/>
      <point x="955" y="1470"/>
      <point x="661" y="1470" type="curve" smooth="yes"/>
      <point x="335" y="1470"/>
      <point x="95" y="1298"/>
      <point x="95" y="912" type="curve" smooth="yes"/>
      <point x="95" y="506" type="line" smooth="yes"/>
      <point x="95" y="128"/>
      <point x="339" y="-30"/>
    </contour>
    <contour>
      <point x="651" y="308" type="curve" smooth="yes"/>
      <point x="541" y="308"/>
      <point x="475" y="370"/>
      <point x="475" y="486" type="curve" smooth="yes"/>
      <point x="475" y="970" type="line" smooth="yes"/>
      <point x="475" y="1070"/>
      <point x="535" y="1130"/>
      <point x="639" y="1130" type="curve" smooth="yes"/>
      <point x="741" y="1130"/>
      <point x="791" y="1088"/>
      <point x="791" y="1008" type="curve" smooth="yes"/>
      <point x="791" y="930"/>
      <point x="733" y="880"/>
      <point x="631" y="880" type="curve" smooth="yes"/>
      <point x="445" y="880" type="line"/>
      <point x="445" y="588" type="line"/>
      <point x="663" y="588" type="line" smooth="yes"/>
      <point x="775" y="588"/>
      <point x="831" y="540"/>
      <point x="831" y="450" type="curve" smooth="yes"/>
      <point x="831" y="366"/>
      <point x="765" y="308"/>
    </contour>
  </outline>
</glyph>
<glyph name="ze-cy.loclBGR" format="2">
  <advance width="1068"/>
  <guideline x="88" y="164" angle="257.7352"/>
  <anchor x="454" y="-420" name="bottom"/>
  <anchor x="464" y="1040" name="top"/>
  <outline>
    <contour>
      <point x="448" y="-450" type="curve" smooth="yes"/>
      <point x="772" y="-450"/>
      <point x="1018" y="-276"/>
      <point x="1018" y="14" type="curve" smooth="yes"/>
      <point x="1018" y="188"/>
      <point x="924" y="312"/>
      <point x="764" y="376" type="curve"/>
      <point x="874" y="434"/>
      <point x="976" y="537"/>
      <point x="976" y="703" type="curve" smooth="yes"/>
      <point x="976" y="923"/>
      <point x="798" y="1080"/>
      <point x="468" y="1080" type="curve" smooth="yes"/>
      <point x="318" y="1080"/>
      <point x="183" y="1044"/>
      <point x="72" y="979" type="curve"/>
      <point x="72" y="612" type="line"/>
      <point x="131" y="688"/>
      <point x="262" y="740"/>
      <point x="394" y="740" type="curve" smooth="yes"/>
      <point x="525" y="740"/>
      <point x="588" y="689"/>
      <point x="588" y="604" type="curve" smooth="yes"/>
      <point x="588" y="530"/>
      <point x="524" y="484"/>
      <point x="410" y="484" type="curve" smooth="yes"/>
      <point x="219" y="484" type="line"/>
      <point x="153" y="172" type="line"/>
      <point x="432" y="172" type="line" smooth="yes"/>
      <point x="564" y="172"/>
      <point x="630" y="126"/>
      <point x="630" y="40" type="curve" smooth="yes"/>
      <point x="630" y="-56"/>
      <point x="542" y="-110"/>
      <point x="402" y="-110" type="curve" smooth="yes"/>
      <point x="265" y="-110"/>
      <point x="123" y="-64"/>
      <point x="30" y="10" type="curve"/>
      <point x="30" y="-362" type="line"/>
      <point x="147" y="-421"/>
      <point x="281" y="-450"/>
    </contour>
  </outline>
</glyph>
